<?xml version="1.0" encoding="utf-8"?>
<!-- Generator: Adobe Illustrator 26.3.1, SVG Export Plug-In . SVG Version: 6.00 Build 0)  -->
<svg version="1.1" id="Слой_1" xmlns="http://www.w3.org/2000/svg" xmlns:xlink="http://www.w3.org/1999/xlink" x="0px" y="0px"
	 viewBox="0 0 53.3 53.3" style="enable-background:new 0 0 53.3 53.3;" xml:space="preserve">
<style type="text/css">
	.st0{fill:#F58320;}
</style>
<g>
	<path class="st0" d="M7,24.2c-1.1-1.1-3.1-1.1-4.2,0l-1.8,1.8C0.3,26.6,0,27.4,0,28.2c0,0.8,0.3,1.6,0.9,2.1l1.9,1.9
		c-0.3,0.1-0.6,0.3-0.8,0.6l-1.1,1.1C0.3,34.4,0,35.2,0,36c0,0.8,0.3,1.6,0.9,2.1l6.4,6.4l-3,3c-0.4,0.4-0.4,1,0,1.4
		c0.2,0.2,0.5,0.3,0.7,0.3c0.3,0,0.5-0.1,0.7-0.3l3-3l6.5,6.5c0.6,0.6,1.3,0.9,2.1,0.9c0.8,0,1.6-0.3,2.1-0.9l1.1-1.1
		c0.2-0.2,0.4-0.5,0.6-0.8l0.3,0.3c0.6,0.6,1.3,0.9,2.1,0.9c0.8,0,1.6-0.3,2.1-0.9l1.8-1.8c1.2-1.2,1.2-3.1,0-4.2L7,24.2z
		 M19.1,49.9L18,51c-0.4,0.4-1.1,0.4-1.5,0l-7.2-7.1c0,0,0,0,0,0c0,0,0,0,0,0l-7.1-7.2C2.1,36.5,2,36.2,2,36c0-0.3,0.1-0.5,0.3-0.7
		l1.1-1.1c0.2-0.2,0.4-0.3,0.7-0.3c0.3,0,0.5,0.1,0.7,0.3l14.3,14.3c0.2,0.2,0.3,0.4,0.3,0.7C19.4,49.5,19.3,49.7,19.1,49.9z
		 M26.1,47.6l-1.8,1.8c-0.4,0.4-1,0.4-1.4,0L2.3,28.9C2.1,28.7,2,28.4,2,28.2c0-0.3,0.1-0.5,0.3-0.7l1.8-1.8
		c0.2-0.2,0.4-0.3,0.7-0.3c0.3,0,0.5,0.1,0.7,0.3l20.5,20.5C26.5,46.6,26.5,47.2,26.1,47.6z"/>
	<path class="st0" d="M52.4,19.4c1.2-1.2,1.2-3.1,0-4.2L46,8.7l3.1-2.9c0.4-0.4,0.4-1,0-1.4c-0.4-0.4-1-0.4-1.4,0l-3.1,2.9l-6.5-6.5
		c-1.1-1.1-3.1-1.1-4.2,0l-1.1,1.1c-0.2,0.2-0.4,0.5-0.6,0.8l-1.9-1.9c-1.1-1.1-3.1-1.1-4.2,0l-1.8,1.8c-1.2,1.2-1.2,3.1,0,4.2
		l20.5,20.5c0.6,0.6,1.3,0.9,2.1,0.9c0.8,0,1.6-0.3,2.1-0.9l1.8-1.8c0.6-0.6,0.9-1.3,0.9-2.1c0-0.8-0.3-1.6-0.9-2.1L50.5,21
		c0.3-0.1,0.6-0.3,0.8-0.6L52.4,19.4z M49.5,24.2l-1.8,1.8c-0.4,0.4-1,0.4-1.4,0L25.7,5.5c-0.4-0.4-0.4-1,0-1.4l1.8-1.8
		C27.7,2.1,27.9,2,28.2,2c0.3,0,0.5,0.1,0.7,0.3l20.5,20.5c0.2,0.2,0.3,0.4,0.3,0.7C49.7,23.8,49.6,24,49.5,24.2z M51,18L49.9,19
		c-0.4,0.4-1,0.4-1.4,0L34.2,4.7C34,4.6,33.9,4.3,33.9,4c0-0.3,0.1-0.5,0.3-0.7l1.1-1.1C35.5,2.1,35.7,2,36,2c0.3,0,0.5,0.1,0.7,0.3
		L51,16.6C51.4,17,51.4,17.6,51,18z"/>
	<path class="st0" d="M33,18.9l-14,14c-0.4,0.4-0.4,1,0,1.4c0.2,0.2,0.5,0.3,0.7,0.3c0.3,0,0.5-0.1,0.7-0.3l14-14
		c0.4-0.4,0.4-1,0-1.4C34,18.5,33.3,18.5,33,18.9z"/>
</g>
</svg>
