<?xml version="1.0" encoding="utf-8"?>
<!-- Generator: Adobe Illustrator 26.3.1, SVG Export Plug-In . SVG Version: 6.00 Build 0)  -->
<svg version="1.1" id="Слой_1" xmlns="http://www.w3.org/2000/svg" xmlns:xlink="http://www.w3.org/1999/xlink" x="0px" y="0px"
	 viewBox="0 0 251.7 120.3" style="enable-background:new 0 0 251.7 120.3;" xml:space="preserve">
<style type="text/css">
	.st0{fill:#F4822F;}
	.st1{fill:#FFFFFF;}
</style>
<g>
	<g>
		<path class="st0" d="M159.8,75.3c-0.3,0.1-0.6,0.4-0.6,0.4c-5.9,12.1-18.3,20.3-32.7,20.3c-20.1,0-36.4-16.3-36.4-36.4
			c0-20.1,16.3-36.4,36.4-36.4c9.1,0,17.4,3.3,23.8,8.9c0,0,0.4,0.3,0.7,0.3c0.3,0,0.5-0.1,0.5-0.1c-6.9-6.5-16.1-10.4-26.3-10.4
			c-21.2,0-38.3,17.2-38.3,38.3c0,21.2,17.2,38.3,38.3,38.3c15.8,0,29.4-9.6,35.2-23.2C160.5,75.3,160.2,75.2,159.8,75.3z"/>
		<g>
			<path class="st1" d="M146,35.3c-3.8,0-9.9,2-13.2,3.8c-2.6-3.2-7.5-5.3-12.3-5.3c-6.5,0-12.4,4.2-12.4,11.1
				c0,6.4,5.4,9.6,10.7,9.9c-0.1,0.4-0.1,0.8-0.1,1.1c0,3.2,2.8,6.4,7,6.4c4.5,0,9.1-3.9,12.5-7.2c-2.9,3.5-5.7,7.9-9.4,13.5
				c-4.9,7.3-9.6,11.6-17.7,11.6c-7.3,0-12.1-3.9-12.1-8.2c0-3.4,1.9-6.2,4.6-8.2c2.7-2,6.2-3.1,9.3-3.1c4.4,0,8,2.2,8,5.9
				c0,2.5-1.3,4.5-3.2,5.8c-1.9,1.3-4.4,2-6.7,2c-2,0-3.5-0.4-4.5-0.7c-1-0.4-1.9-0.7-1.9-0.7s-0.2,0-0.4,0.3
				c-0.1,0.2-0.1,0.5-0.1,0.5s2.1,1.8,7.1,1.8c5,0,10.6-3.4,10.6-8.8c0-5.1-5.5-8.5-10.8-8.5c-6.4,0-14.4,4.9-14.4,12.2
				c0,6,6.5,10.8,14.4,10.8h0c10.2,0,20-5.7,24.7-16.5c2.7-6.2,4.5-9.8,5.5-11.5c1-1.7,1.4-2.1,1.4-2.1s0-0.3-0.3-0.5
				c-0.3-0.2-0.6-0.1-0.6-0.1s-0.8,0.6-1.8,1.6c-3.1,3-8.6,8.7-14,8.7c-1.6,0-3-0.5-3-3.9c0-0.8,0-1.5,0.3-2.2
				c6.1-0.6,13-3.3,18-6.3c5.1-3,8.8-6.6,8.8-9.7c0-0.1,0-0.2,0-0.3C150.1,36.6,148.4,35.4,146,35.3z M136.1,46c0,0,0.2,0.1,0.5,0
				c0.3-0.2,0.3-0.4,0.3-0.4s-0.5-1.4-2.8-4.9c3.1-2.2,8-4.3,11.8-4.3c2.3,0,3,0.6,3,2.3c0,2.7-3.3,6.2-8.2,8.9
				c-4.8,2.7-11.2,4.7-16.9,4.8c1.7-4.6,5.5-8.2,9.4-11c0.9,1.2,1.5,2.3,2,3.2C135.6,45,136.1,46,136.1,46z M119.3,52.1
				c-2.5-0.2-4.2-0.6-6.3-2c-2.1-1.4-3.7-3.6-3.7-6.2c0-4.4,4.3-9.1,10.8-9.1c4.8,0,9,1.8,11.7,4.7C127,42.6,121.8,46,119.3,52.1z"
				/>
			<g>
				<path class="st1" d="M146.4,53.6c0-3.3,0-3.7-1.6-3.8l-0.9-0.1c-0.2-0.2-0.2-0.8,0-1c2.1-0.2,5-0.3,7.8-0.3c2.6,0,5,0.3,6.5,1.2
					c1.7,0.9,3,2.5,3,5c0,3.1-2.4,4.7-4.1,5.4c-0.2,0.1-0.1,0.4,0,0.6c2.7,4.6,4.4,7.5,6,8.8c1,0.8,1.9,1,2.3,1.1
					c0.2,0.1,0.2,0.5,0.1,0.7c-0.4,0.1-1.1,0.2-2.2,0.2c-3.3,0-5-1.3-7.1-4.5c-0.9-1.4-1.9-3.3-2.7-4.6c-0.6-1-1-1.2-2.1-1.2
					c-1,0-1.1,0-1.1,0.7V66c0,3.6,0.3,3.7,1.9,3.9L153,70c0.2,0.2,0.2,0.9-0.1,1c-1.5-0.1-3-0.1-4.5-0.1c-1.5,0-3,0-4.6,0.1
					c-0.3-0.1-0.4-0.7-0.1-1l0.7-0.1c1.6-0.2,1.9-0.3,1.9-3.9V53.6z M150.3,58.5c0,1.1,0,1.2,1.6,1.2c3.3,0,4.9-1.6,4.9-4.9
					c0-2.7-1.7-5-4.7-5c-1.8,0-1.8,0.1-1.8,1.7V58.5z"/>
				<path class="st1" d="M189,59.8c0,6.7-5.1,11.7-12,11.7c-7.7,0-12.1-5.4-12.1-11.5c0-6.9,5-12.1,12.2-12.1
					C184.9,47.9,189,53.6,189,59.8z M169.5,59c0,4.7,2,11.1,7.8,11.1c3.9,0,7-2.9,7-9.7c0-5.1-2.3-11.1-7.7-11.1
					C173.2,49.3,169.5,51.8,169.5,59z"/>
				<path class="st1" d="M193.7,53.4c0-3.6-0.3-3.7-1.9-3.9l-0.6-0.1c-0.2-0.2-0.2-0.8,0.1-1c1.4,0.1,2.9,0.1,4.4,0.1
					c1.5,0,3.1,0,4.6-0.1c0.3,0.1,0.3,0.7,0.1,1l-0.7,0.1c-1.6,0.2-1.9,0.3-1.9,3.9v7.8c0,4.7,1.4,8.6,6.1,8.6
					c4.5,0,6.3-3.4,6.3-8.5V57c0-2.5,0-5.7-0.6-6.7c-0.3-0.5-0.8-0.7-1.7-0.9l-0.7-0.1c-0.3-0.2-0.3-0.8,0.1-1
					c1.2,0.1,2.4,0.1,3.8,0.1c1.4,0,2.3,0,3.6-0.1c0.3,0.2,0.3,0.7,0.1,1l-0.7,0.2c-0.6,0.1-1.3,0.3-1.5,0.8c-0.5,1-0.5,4-0.5,6.7v4
					c0,3.1-0.5,5.9-2.2,7.8c-1.8,1.9-4.3,2.5-6.7,2.5c-3.2,0-5.4-0.7-7-2.2c-1.5-1.5-2.2-3.8-2.2-7.3V53.4z"/>
				<path class="st1" d="M42.9,62.6c-0.9,0-0.8,0-1.2,0.9l-1.4,4.1c-0.7,2-0.5,2.1,0.7,2.3l1,0.2c0.2,0.2,0.2,0.8-0.1,1
					c-1.1-0.1-2.2-0.1-3.6-0.1c-1.1,0-2.2,0-3.4,0.1c-0.2-0.2-0.3-0.7,0-1l1-0.2c1-0.2,1.4-0.4,1.9-1.6c0.4-0.9,1-2.3,1.7-4.1
					L44.1,52c0.4-1.1,0.7-1.9,0.6-2.5c1.2-0.2,2.3-1.6,2.4-1.6c0.3,0,0.4,0.1,0.6,0.3c0.5,1.5,1,3.1,1.5,4.7l4.9,14.2
					c0.8,2.3,1,2.5,2.7,2.8l0.5,0.1c0.3,0.2,0.3,0.8,0,1c-1.4-0.1-2.7-0.1-4.4-0.1c-1.5,0-3,0.1-4.1,0.1c-0.3-0.2-0.3-0.8-0.1-1
					l0.7-0.1c1.2-0.2,1.4-0.4,0.9-1.8l-1.6-4.6c-0.3-0.9-0.4-0.9-1.4-0.9H42.9z M46.9,61c1,0,1.1-0.1,0.8-0.9l-1.4-4.1
					c-0.6-1.8-0.8-2.4-1-2.7h-0.1c-0.1,0.2-0.4,1.1-1,2.7l-1.4,4c-0.3,1-0.3,1,0.5,1H46.9z"/>
				<path class="st1" d="M78.9,54.2c-0.2,0.3-0.8,0.3-1.1,0.1c-0.6-2.1-2.1-5-6.6-5c-4.3,0-8.7,3.1-8.7,10c0,7.2,4.5,10.8,8.9,10.8
					c4.3,0,6.1-2.9,7.1-5.1c0.3-0.3,0.8-0.2,1,0.1c-0.2,2.3-1.2,4.5-1.6,5.2c-0.4,0.1-0.8,0.2-1.2,0.3c-0.7,0.2-3.1,0.8-5.3,0.8
					c-3.4,0-6.3-0.7-8.7-2.3c-2.8-1.8-4.8-4.9-4.8-9.3c0-4,1.8-7.1,4.3-9c2.5-1.9,5.9-2.9,9.4-2.9c1.9,0,4.3,0.3,5.9,0.7
					c0.4,0.1,0.6,0.1,1,0.2C78.5,49.7,78.5,51.7,78.9,54.2z"/>
				<path class="st1" d="M33.8,49.7c-1.5-0.9-3.9-1.4-7.1-1.4c-3.1,0-5.1,0-7.5,0.3c-0.3,0.1-0.3,0.7,0,1l1.2,0.1
					c1.4,0.2,1.5,0.7,1.5,3.8V66c0,3.6-0.3,3.7-1.9,3.9L19.4,70c-0.2,0.2-0.2,0.8,0.1,1c1.4-0.1,2.9-0.1,4.4-0.1c1.5,0,3,0,5,0.1
					c0.2-0.1,0.3-0.7,0.1-1l-1.3-0.1c-1.6-0.2-1.9-0.3-1.9-3.9v-3.6c0-0.7,0-0.7,1.1-0.7c1.1,0,3.5,0.1,5.7-0.8c2.2-1,4.2-2.8,4.2-6
					C36.7,52.6,35.6,50.8,33.8,49.7z M27.4,60.4c-1.6,0-1.6-0.1-1.6-1.2v-8.1c0-1.3,0-1.4,1.7-1.4c3.1,0,4.9,2.4,4.9,5.2
					C32.4,57.2,31.6,60.4,27.4,60.4z"/>
				<path class="st1" d="M231.3,49.7c-1.5-0.9-3.9-1.4-7.1-1.4c-3.1,0-5.1,0-7.5,0.3c-0.3,0.1-0.3,0.7,0,1l1.2,0.1
					c1.4,0.2,1.5,0.7,1.5,3.8V66c0,3.6-0.3,3.7-1.9,3.9l-0.5,0.1c-0.2,0.2-0.2,0.8,0.1,1c1.4-0.1,2.9-0.1,4.4-0.1c1.5,0,3,0,5,0.1
					c0.2-0.1,0.3-0.7,0.1-1l-1.3-0.1c-1.6-0.2-1.9-0.3-1.9-3.9v-3.6c0-0.7,0-0.7,1.1-0.7c1.1,0,3.5,0.1,5.7-0.8c2.2-1,4.2-2.8,4.2-6
					C234.2,52.6,233.1,50.8,231.3,49.7z M224.9,60.4c-1.6,0-1.6-0.1-1.6-1.2v-8.1c0-1.3,0-1.4,1.7-1.4c3.1,0,4.9,2.4,4.9,5.2
					C229.9,57.2,229.1,60.4,224.9,60.4z"/>
			</g>
		</g>
	</g>
</g>
</svg>
