<?xml version="1.0" encoding="utf-8"?>
<!-- Generator: Adobe Illustrator 27.5.0, SVG Export Plug-In . SVG Version: 6.00 Build 0)  -->
<svg version="1.1" id="Слой_1" xmlns="http://www.w3.org/2000/svg" xmlns:xlink="http://www.w3.org/1999/xlink" x="0px" y="0px"
	 viewBox="0 0 677.91 158.8" style="enable-background:new 0 0 677.91 158.8;" xml:space="preserve">
<style type="text/css">
	.st0{fill-rule:evenodd;clip-rule:evenodd;fill:#009BD9;}
	.st1{fill-rule:evenodd;clip-rule:evenodd;fill:#9B9C9B;}
</style>
<g>
	<path class="st0" d="M74.3,62.59c0-16.3-11.41-23.44-23.61-24.65c10.87-1.44,16.7-7.49,16.7-18.24c0-11-6.64-18.5-28.39-18.5H0
		v89.07h38.35C60.1,90.28,74.3,81.34,74.3,62.59L74.3,62.59z M41.12,25.13c0,6.66-2.24,9.56-8.75,9.56H27.2V15.95h5.04
		C38.48,15.95,41.12,18.85,41.12,25.13L41.12,25.13z M46.3,61.51c0,9.09-4.11,13.78-12.59,13.78H27.2V47.74h5.98
		C41.65,47.74,46.3,52.33,46.3,61.51L46.3,61.51z M46.3,61.51"/>
	<path class="st0" d="M260.5,49.07v-5.93C260.5,17.38,244.3,0,217.38,0c-28.79,0-43.77,18.49-43.77,43.15v6.16
		c0,28.06,19.35,42.44,43.24,42.44C242.46,91.74,260.5,77.1,260.5,49.07L260.5,49.07z M217.1,73.9c-21.62,0-21.01-55.48,0-55.48
		C238.17,18.42,237.67,73.9,217.1,73.9L217.1,73.9z M217.1,73.9"/>
	<path class="st0" d="M166.9,49.07v-5.93C166.9,17.38,150.73,0,123.78,0C94.99,0,80.01,18.49,80.01,43.15v6.16
		c0,28.06,19.38,42.44,43.24,42.44C148.86,91.74,166.9,77.1,166.9,49.07L166.9,49.07z M123.53,73.9c-21.64,0-21.04-55.48,0-55.48
		C144.57,18.42,144.07,73.9,123.53,73.9L123.53,73.9z M123.53,73.9"/>
	<path class="st0" d="M166.9,49.07v-5.93C166.9,17.38,150.73,0,123.78,0C94.99,0,80.01,18.49,80.01,43.15v6.16
		c0,28.06,19.38,42.44,43.24,42.44C148.86,91.74,166.9,77.1,166.9,49.07L166.9,49.07z M123.53,73.9c-21.64,0-21.04-55.48,0-55.48
		C144.57,18.42,144.07,73.9,123.53,73.9L123.53,73.9z M123.53,73.9"/>
	<path class="st0" d="M359.96,90.28L319.11,41.1l35.27-39.89h-28.26l-27.04,33.36V1.21h-28.66v89.07h28.66V62.72l2.12-2.53
		l25.2,30.08H359.96z M359.96,90.28"/>
	<rect x="367.1" y="1.21" class="st1" width="28.66" height="89.06"/>
	<path class="st1" d="M479.98,22.05V1.19H406.1v20.86h22.68v68.23h28.79V22.05H479.98z M479.98,22.05"/>
	<path class="st1" d="M1.67,147.09h28.28v11.71h3.4v-14.86h-2.49v-35.67h-4.11v35.67H5.76v-35.67H1.67V147.09z M73.35,128.9v-2.8
		c0-11.76-6.21-19-16.65-19c-9.82,0-17.08,7.01-17.08,19.15v2.78c0,14.27,9.49,18.82,17.51,18.82c5.55,0,10.8-1.04,13.5-3v-3.41
		c-2.14,1.19-6.48,3-12.74,3c-8.22,0-14.08-4.74-14.08-15.54H73.35z M69.16,125.7H43.8c0.16-10.17,5.78-15.06,13.05-15.06
		C64.44,110.63,69.16,115.53,69.16,125.7L69.16,125.7z M110.84,147.09v-38.82h-4.11v17.79H84.85v-17.79h-4.11v38.82h4.11v-17.91
		h21.88v17.91H110.84z M146.84,111.82v-3.55h-29.95v3.55h12.94v35.27h4.11v-35.27H146.84z M184.81,128.7v-4.26
		c0-9.34-4.31-17.28-15.46-17.28c-6.13,0-10.8,3.98-12.47,8.02l-0.2-6.76h-3.79v50.31h4.06v-17.84c1.19,2.93,5.57,6.69,12.47,6.69
		C179.18,147.57,184.81,141.64,184.81,128.7L184.81,128.7z M180.65,128.47c0,11.23-4.26,15.97-11.71,15.97
		c-6.91,0-11.23-4.62-11.93-8.1v-17.83c2.32-5.15,6.63-8,11.65-8c8.2,0,11.99,6.06,11.99,14.69V128.47z M245.49,128.82v-1.81
		c0-10.64-5.23-18.52-17.41-18.52c-7.8,0-12.82,3.76-14.71,9.53c0-0.48,0.16-2.85,0.23-3.27c0.55-9.34,5.5-13.65,15.18-14.84
		l9.18-1.11v-3.64l-9.18,1.34c-12.81,1.87-18.82,7.52-18.82,19.86v12.46c0,12.61,6.96,19.03,17.68,19.03
		C238.75,147.85,245.49,140.96,245.49,128.82L245.49,128.82z M241.45,128.2c0,11.03-4.51,16.37-13.8,16.37
		c-8.55,0-13.57-5.07-13.57-16.37v-0.56c0-9.74,4.39-15.82,13.73-15.82c9.69,0,13.65,6.36,13.65,15.82V128.2z M285.99,128.7v-4.26
		c0-9.34-4.31-17.28-15.47-17.28c-6.13,0-10.8,3.98-12.49,8.02l-0.2-6.76h-3.76v50.31h4.04v-17.84c1.19,2.93,5.57,6.69,12.49,6.69
		C280.34,147.57,285.99,141.64,285.99,128.7L285.99,128.7z M281.8,128.47c0,11.23-4.24,15.97-11.7,15.97
		c-6.89,0-11.21-4.62-11.91-8.1v-17.83c2.29-5.15,6.61-8,11.63-8c8.22,0,11.98,6.06,11.98,14.69V128.47z M328.47,128.7v-2.53
		c0-10.8-5.23-19.07-17.84-19.07c-11.43,0-17.68,8-17.68,19.07v2.53c0,12.67,6.96,19.15,17.68,19.15
		C321.71,147.85,328.47,140.88,328.47,128.7L328.47,128.7z M324.44,127.71c0,11.43-4.52,16.86-13.8,16.86
		c-8.55,0-13.58-5.15-13.58-16.86v-0.56c0-10.24,4.39-16.72,13.73-16.72c9.69,0,13.65,6.76,13.65,16.72V127.71z M367.15,147.09
		v-38.82h-4.11v17.79h-21.87v-17.79h-4.11v38.82h4.11v-17.91h21.87v17.91H367.15z M381.08,147.09v-0.98l20.84-30.65v31.64h3.76
		v-38.82h-3.76v0.98l-20.84,30.81v-31.79h-3.76v38.82H381.08z M447.76,128.7v-4.26c0-9.34-4.31-17.28-15.46-17.28
		c-6.13,0-10.8,3.98-12.49,8.02l-0.2-6.76h-3.76v50.31h4.04v-17.84c1.19,2.93,5.57,6.69,12.47,6.69
		C442.11,147.57,447.76,141.64,447.76,128.7L447.76,128.7z M443.57,128.47c0,11.23-4.24,15.97-11.71,15.97
		c-6.89,0-11.2-4.62-11.9-8.1v-17.83c2.29-5.15,6.61-8,11.63-8c8.22,0,11.98,6.06,11.98,14.69V128.47z M490.25,128.7v-2.53
		c0-10.8-5.23-19.07-17.84-19.07c-11.43,0-17.68,8-17.68,19.07v2.53c0,12.67,6.96,19.15,17.68,19.15
		C483.49,147.85,490.25,140.88,490.25,128.7L490.25,128.7z M486.21,127.71c0,11.43-4.52,16.86-13.8,16.86
		c-8.55,0-13.58-5.15-13.58-16.86v-0.56c0-10.24,4.39-16.72,13.73-16.72c9.69,0,13.65,6.76,13.65,16.72V127.71z M527.03,136.02
		c0-5.1-2.93-9.21-8.51-9.84c4.75-0.56,6.76-4.19,6.76-8.71c0-5.22-3.27-9.06-10.44-9.06h-16.02v38.68h15.66
		C522.52,147.09,527.03,143.3,527.03,136.02L527.03,136.02z M521.41,118.18c0,4.31-2.37,6.69-6.21,6.69h-12.34v-13.32h11.15
		C518.76,111.55,521.41,113.64,521.41,118.18L521.41,118.18z M522.87,135.79c0,5.23-2.8,8.15-8.93,8.15h-11.08v-15.95h11.55
		C520.07,127.99,522.87,131.12,522.87,135.79L522.87,135.79z M563.77,147.09v-29.07c0-5.22-3.71-10.87-13.6-10.87
		c-5.65,0-10.17,1.18-12.74,2.6v3.41c2.65-1.47,7.45-2.8,12.19-2.8c7.8,0,10.24,3.91,10.24,7.94v8.43
		c-2.3-4.39-7.04-6.68-12.54-6.68c-9.2,0-14.78,5.73-14.78,13.45v0.7c0,9.18,6.41,13.38,14.08,13.38c6.13,0,11.58-2.8,13.32-7.52
		l0.28,7.03H563.77z M559.86,133.97c0,5.65-4.39,10.52-11.91,10.52c-6.68,0-11.43-3.53-11.43-10.44v-1.03
		c0-5.78,4.66-9.97,11.43-9.97c7.24,0,11.91,4.87,11.91,9.89V133.97z M603.46,147.09v-38.82h-4.09v17.79h-21.9v-17.79h-4.08v38.82
		h4.08v-17.91h21.9v17.91H603.46z M617.41,147.09v-0.98l20.82-30.65v31.64h3.78v-38.82h-3.78v0.98l-20.82,30.81v-31.79h-3.76v38.82
		H617.41z M650.48,147.09c0-14.86,3.2-18.47,8.3-19.38c-4.59-0.35-7.24-3.63-7.24-8.58v-2.49c0-4.47,3.33-8.38,9.46-8.38h16.04
		v38.82h-3.98v-17.63h-10.59c-5.35,0-7.93,4.04-8,17.63H650.48z M655.43,119.36c0,4.31,2.32,6.89,6.76,6.89h10.87v-14.84h-11.15
		c-4.59,0-6.48,2.93-6.48,6.76V119.36z M655.43,119.36"/>
	<path class="st0" d="M675.49,7.44c1.16,0,2.53,0.53,2.42,1.67c-1.36,0.33-2.49-0.98-3.91-0.61c-0.23,0.05-0.48,0.33-0.46,0.56
		c0.05,0.71,1.74,0.66,1.87,1.34c-0.28,0.23-0.58,0.03-0.81,0.05c-0.33,0.05-0.94,0.43-1.14,0.66c-0.28,0.25-0.5,0.9-0.78,0.96
		c-0.33,0.08-0.86-0.36-1.36-0.23c-0.21,0.03-0.38,0.28-0.56,0.3c-0.41,0.1-0.96-0.23-1.21,0.3c0.13,0.35,0.05,0.88,0.33,1.09
		c0.2,0.12,0.43,0.03,0.66,0.12c0.28,0.1,0.43,0.46,0.65,0.66c0.2,0.15,0.41,0.15,0.5,0.36c0.03,0.3-0.12,0.32-0.07,0.53
		c0.05,0.32,0.56,0.4,0.57,0.65c0,0.28-0.32,0.23-0.4,0.5c-0.03,0.2,0.23,0.25,0.25,0.5c0,0.15-0.13,0.33-0.13,0.53
		c0.03,0.25,0.23,0.43,0.21,0.68c-0.03,0.2-0.21,0.36-0.36,0.45c-0.73-0.5-1.39-1.18-2.2-1.84c-0.81-0.66-2.07-1.47-2.22-2.82
		c0-0.21,0.43-0.38,0.51-0.68c0.02-0.15-0.05-0.33-0.05-0.5c0.03-0.48,0.4-0.94,0.4-1.21c-0.03-0.3-0.58-0.88-0.86-0.96
		c-0.23,0.1,0,0.36-0.02,0.56c-0.05,0.25-0.33,0.56-0.58,0.58c-0.74,0.05-0.81-1.01-1.97-0.71c-0.28,0.08-0.7,0.56-0.61,1.14
		c0.03,0.18,0.5,0.38,0.46,0.61c-0.03,0.25-1.04,0.3-1.27,0.3c-0.61-0.08-0.93-0.56-1.49-0.53c-0.28,0-0.5,0.23-0.74,0.28
		c-1.21,0.23-3-0.63-3.4,0.48c-0.05,0.15-0.03,0.38-0.08,0.53c-0.07,0.23-0.25,0.43-0.3,0.58c-0.05,0.12-0.05,0.36-0.13,0.56
		c-0.08,0.17-0.78,0.86-0.15,1.06c0.15,0.05,0.23-0.08,0.43-0.05c0.33,0.05,0.89,0.61,1.26,0.61c0.23,0,0.56-0.28,0.74-0.28
		c0.35-0.03,0.6,0.23,0.88,0.37c0.25,0.13,0.66,0.41,0.83,0.41c0.36-0.03,0.2-0.3,0.53-0.41c0.68,0.21,0.99,0.94,1.61,1.54
		c0.23,0.2,0.58,0.37,0.89,0.68c0.17,0.15,0.7,0.61,0.73,0.81c0.03,0.2-0.15,0.28-0.2,0.45c-0.05,0.23,0.1,0.43-0.08,0.61
		c-0.6-0.25-0.73-0.88-1.18-1.41c-0.15-0.2-0.33-0.45-0.58-0.73c-0.1-0.12-0.5-0.61-0.76-0.5c-0.48,0.2,0.28,0.98,0.37,1.14
		c0.25,0.37,0.61,0.86,0.63,1.23c0,0.23-0.16,0.68-0.16,1.09c-0.02,0.28,0.05,0.53,0.03,0.76c-0.03,0.25-0.17,0.53-0.28,0.78
		c-0.07,0.3-0.1,0.66-0.17,0.86c-0.15,0.36-0.66,0.78-1.01,0.81c-0.3,0-0.46-0.25-0.76-0.25c-0.48,0.03-0.56,0.48-0.83,0.86
		c0.03,0.41,0.12,0.53,0.07,0.81c-0.12,0.43-0.68,0.5-0.65,0.94c0,0.4,0.5,0.48,0.76,0.65c0.36,0.23,0.94,0.76,1.26,1.21
		c0.23,0.28,0.53,0.83,0.5,1.13c-0.02,0.41-1.1,0.96-1.56,0.81c-0.43-0.15-0.28-0.57-0.37-0.98c-0.1-0.3-0.33-0.43-0.43-0.68
		c-0.07-0.13-0.03-0.33-0.12-0.48c-0.23-0.43-0.63-0.2-1.11-0.45c-0.3-0.17-0.23-0.53-0.33-0.86c-0.17-0.43-0.86-0.63-1.44-0.5
		c-0.4,0.08-0.53,0.43-0.9,0.5c-0.56-0.35,0.1-1.21-0.58-1.29c-0.53-0.05-0.88,0.81-1.19,1.06c-0.2,0.16-0.57,0.2-0.6,0.43
		c-0.05,0.45,0.43,0.37,0.83,0.53c0.35,0.15,0.4,0.57,0.73,0.6c0.28,0.03,0.45-0.28,0.73-0.3c0.48-0.05,0.86,0.18,1.14,0.36
		c-0.17,0.48-1.21,0.86-1.21,1.49c0,0.37,0.41,0.45,0.74,0.7c0.25,0.2,0.6,0.81,0.98,1.21c0.17,0.18,0.43,0.3,0.5,0.41
		c0.17,0.28,0.15,0.58,0.36,0.76c0.03,0.23-0.1,0.28-0.08,0.5c0.08,0.28,0.5,0.23,0.61,0.53c-0.08,0.68,0.2,1.34-0.36,1.61
		c-0.25,1.27-0.53,2.22-1.34,2.91c-0.73,0.63-1.69,0.81-2.57,1.1c-0.23,0.08-0.41,0.33-0.61,0.41c-0.5,0.17-1.41,0.08-1.47,0.73
		c0,0.33,0.41,0.5,0.43,0.86c0.05,0.5-0.38,1.01-0.68,1.03c-0.23,0.03-0.7-0.12-0.73-0.56c-0.03-0.48,0.56-0.68,0.61-0.98
		c0.08-0.5-0.43-1.01-0.99-0.96c-0.5,0.03-1.66,1.11-1.69,1.69c-0.03,0.45,0.81,1.36,1.11,1.61c1.06,1.01,2.22,1.61,2.02,4.06
		c-0.25,0.63-0.96,0.76-1.49,1.09c-0.41,0.28-0.61,1.09-1.31,1.14c-0.28-0.1-0.1-0.56-0.18-0.76c-0.1-0.3-0.65-0.43-1.01-0.74
		c-0.28-0.25-0.38-0.63-0.61-0.85c-0.28-0.28-0.65-0.33-0.98-0.54c-0.23-0.1-0.38-0.53-0.58-0.53c-0.36,0.03-0.23,0.38-0.3,0.94
		c-0.1,0.58-0.48,1.01-0.36,1.67c0.05,0.28,0.38,0.5,0.53,0.78c0.28,0.45,0.3,0.98,0.58,1.26c0.18,0.16,0.48,0.2,0.68,0.36
		c0.4,0.3,1.14,0.98,1.26,1.34c0.17,0.43,0.03,0.93,0.13,1.39c0.12,0.5,0.78,0.88,0.37,1.41c-0.35-0.08-0.68-0.33-0.98-0.54
		c-0.53-0.35-0.78-0.63-1.11-1.21c-0.1-0.17-0.25-0.33-0.3-0.5c-0.15-0.36-0.12-0.76-0.25-1.21c-0.1-0.37-0.5-0.98-0.83-1.29
		c-0.28-0.28-0.76-0.43-0.76-0.81c-0.03-0.56,0.15-1.18,0.15-1.84c0-0.13-0.1-0.28-0.12-0.43c-0.03-0.3,0.03-0.71-0.03-0.99
		c-0.08-0.25-0.25-0.48-0.36-0.73c-0.1-0.23-0.2-0.45-0.3-0.76c-0.15-0.48-0.32-1.39-0.7-1.41c-0.38-0.05-0.76,0.76-1.26,0.76
		c-0.25,0-0.58-0.2-0.63-0.48c-0.05-0.25,0.1-0.5,0.1-0.78c0-0.53-0.38-0.73-0.66-1.14c-0.1-0.15-0.12-0.36-0.23-0.48
		c-0.17-0.23-0.5-0.33-0.73-0.56c-0.21-0.23-0.43-0.53-0.53-0.73c-0.16-0.33-0.21-0.74-0.43-0.78c-0.2-0.03-0.45,0.3-0.68,0.37
		c-0.23,0.08-0.81,0.18-1.03,0.2c-0.76,0.05-1.39-0.17-1.32,0.81c-0.1,0.43-0.55,0.43-0.83,0.66c-0.38,0.25-0.63,0.78-1.04,1.21
		c-0.2,0.21-0.48,0.33-0.65,0.54c-0.15,0.15-0.2,0.4-0.36,0.55c-0.4,0.41-1.01,0.46-1.29,1.01c-0.03,0.68,0.3,1.18,0.23,1.81
		c-0.03,0.3-0.25,0.56-0.28,0.86c-0.03,0.25,0.1,0.53,0.05,0.81c-0.03,0.15-0.2,0.23-0.3,0.4c-0.12,0.18-0.15,0.38-0.23,0.5
		c-0.15,0.18-0.36,0.28-0.48,0.43c-0.18,0.25-0.23,0.43-0.41,0.45c-0.86,0.13-1.06-1.56-1.43-2.27c-0.16-0.33-0.51-0.61-0.68-1.01
		c-0.2-0.45-0.25-1.03-0.53-1.54c-0.25-0.45-0.58-0.88-0.73-1.34c-0.13-0.38-0.25-0.88-0.38-1.29c-0.15-0.46-0.3-1.03-0.3-1.39
		c-0.05-0.53,0.08-0.86-0.32-1.06c-0.36,0.1-0.54,0.48-0.96,0.48c-0.4,0-1.49-0.73-1.19-1.41c-0.25-0.4-0.93-0.6-1.43-1.08
		c-0.3-0.28-0.58-0.9-1.09-0.98c-0.13,0-0.33,0.08-0.45,0.1c-0.33,0.03-0.91-0.05-1.27,0c-0.45,0.03-1.03,0.12-1.61,0.07
		c-0.37-0.05-0.83-0.12-1.23-0.17c-0.48-0.05-1.14-0.17-1.41-0.43c-0.15-0.18-0.23-0.71-0.53-0.78c-0.36-0.08-0.56,0.2-0.88,0.27
		c-0.7,0.18-1.29-0.15-1.76-0.48c-0.33-0.23-0.63-0.35-0.88-0.53c-0.58-0.4-0.68-1.64-1.56-1.67c-0.3,0-0.81,0.21-0.83,0.58
		c-0.05,0.25,0.28,0.74,0.41,0.94c0.43,0.63,1.23,0.88,1.46,1.74c0.15,0.05,0.48-0.15,0.66,0.03c0.15,0.38,0,1.06,0.32,1.24
		c1.61,0.28,2.07-0.66,2.78-1.31c0.41,0.27,0.28,0.53,0.43,0.85c0.12,0.33,0.35,0.58,0.63,0.68c0.2,0.08,0.46,0,0.74,0.12
		c0.17,0.08,0.93,0.83,0.96,1.09c0.03,0.25-0.48,1.06-0.66,1.27c-0.15,0.2-0.37,0.3-0.45,0.48c-0.05,0.15-0.03,0.45-0.08,0.53
		c-0.07,0.17-0.4,0.37-0.6,0.58c-0.23,0.2-0.46,0.35-0.66,0.53c-0.25,0.17-0.4,0.45-0.66,0.56c-0.5,0.2-0.98,0.12-1.41,0.4
		c-0.28,0.2-0.28,0.63-0.61,0.86c-0.36,0.23-0.96,0.25-1.47,0.48c-0.32,0.16-0.53,0.46-0.81,0.58c-0.1,0.05-0.25,0-0.37,0.03
		c-0.25,0.08-0.5,0.28-0.73,0.33c-0.21,0.05-0.38,0.03-0.58,0.07c-0.58,0.18-1.14,0.83-1.72,0.46c-0.28-0.68-0.33-1.54-0.65-2.14
		c-0.18-0.3-0.51-0.41-0.61-0.74c-0.03-0.25,0.28-0.2,0.3-0.4c-0.1-0.43-0.48-0.66-0.74-1.01c-0.12-0.18-0.17-0.46-0.3-0.66
		c-0.45-0.7-1.36-1.06-1.54-1.94c-0.05-0.25,0-0.43-0.03-0.6c-0.07-0.3-0.28-0.63-0.48-0.86c-0.12-0.18-0.43-0.3-0.61-0.56
		c-0.1-0.17-0.12-0.43-0.23-0.61c-0.37-0.76-0.93-1.44-1.54-1.97c-0.3,0.05-0.66,0.08-0.81,0.3c0.15,0.53,0.4,0.96,0.65,1.41
		c0.23,0.41,0.58,0.83,0.74,1.29c0.05,0.18,0.05,0.41,0.12,0.58c0.23,0.63,0.99,0.83,1.14,1.56c0.1,0.5-0.03,0.86,0.13,1.34
		c0.12,0.48,0.78,0.76,1.06,1.24c0.23,0.35,0.23,0.88,0.37,1.23c0.23,0.53,0.88,0.76,1.36,1.11c0.41,0.3,0.71,0.78,1.06,1.14
		c0.2,0.2,0.48,0.23,0.53,0.43c0.08,0.28-0.1,0.38-0.15,0.61c0.3,0.33,0.58,0.93,1.09,0.98c0.2,0.03,0.45-0.2,0.76-0.25
		c0.15-0.03,0.33,0.03,0.45,0c0.21-0.03,0.41-0.23,0.63-0.28c0.38-0.07,0.83-0.05,1.34-0.12c0.45-0.05,0.78-0.48,1.14-0.36
		c0.4,0.45,0.12,0.98,0,1.41c-0.03,0.15-0.03,0.33-0.08,0.45c-0.2,0.7-0.73,1.26-0.98,1.89c-0.08,0.2-0.08,0.45-0.15,0.66
		c-0.28,0.65-0.88,1.29-1.34,1.81c-0.28,0.3-0.5,0.58-0.78,0.81c-0.28,0.25-0.61,0.37-0.9,0.61c-0.63,0.48-1.27,1.16-1.69,1.79
		c-0.18,0.25-0.25,0.53-0.43,0.73c-0.25,0.3-0.63,0.43-0.83,0.74c-0.17,0.23-0.27,0.63-0.45,1.06c-0.23,0.45-0.65,0.76-0.58,1.41
		c0.03,0.25,0.23,0.41,0.3,0.66c0.13,0.43,0.03,0.78-0.05,1.23c0.23,0.56,0.38,1.19,0.78,1.54c0.05,0.83-0.07,1.61,0,2.32
		c0.03,0.43,0.21,0.76,0.03,1.16c-0.12,0.37-0.68,1.01-1.03,1.23c-0.35,0.23-0.9,0.3-1.29,0.61c-0.28,0.2-0.5,0.56-0.78,0.81
		c-0.45,0.4-1.06,0.76-1.11,1.16c-0.03,0.25,0.17,0.6,0.23,0.83c0.16,0.58,0.3,1.44,0.05,2.1c-0.28,0.7-1.69,0.56-1.84,1.29
		c-0.05,0.23,0.1,0.4,0.08,0.65c0,0.21-0.28,0.96-0.38,1.19c-0.17,0.33-0.56,0.48-0.81,0.76c-0.3,0.36-0.48,0.89-0.81,1.27
		c-0.45,0.5-1.06,1.06-1.64,1.49c-0.5,0.4-1.44,0.81-2.22,0.86c-0.48,0.03-0.98-0.1-1.46-0.03c-0.18,0.03-0.38,0.2-0.61,0.23
		c-0.15,0.03-0.28-0.03-0.43,0c-0.25,0.05-0.48,0.25-0.68,0.25c-0.5,0-1.14-0.63-1.16-1.26c0-0.23,0.21-0.46,0.21-0.68
		c0-0.25-0.3-0.58-0.56-1.06c-0.2-0.45-0.3-0.96-0.53-1.34c-0.23-0.4-0.56-0.58-0.74-0.88c-0.35-0.63-0.37-1.36-0.48-2.13
		c-0.05-0.23-0.2-0.5-0.25-0.81c-0.03-0.37,0.05-0.78-0.03-1.08c-0.07-0.25-0.3-0.48-0.45-0.78c-0.28-0.53-0.48-1.21-0.7-1.61
		c-0.21-0.37-0.63-0.78-0.68-1.21c-0.03-0.3,0.03-0.86,0.08-1.14c0.05-0.28,0.25-0.5,0.3-0.81c0.05-0.2,0-0.43,0.05-0.66
		c0.17-0.93,1.16-1.26,1.03-2.4c-0.05-0.48-0.38-0.7-0.43-1.26c-0.03-0.25,0.13-0.45,0.13-0.7c-0.03-0.36-0.3-0.86-0.43-1.19
		c-0.4-0.89-0.63-1.72-1.18-2.4c-0.3-0.36-0.71-0.63-0.96-0.96c-0.2-0.28-0.45-0.81-0.45-1.01c-0.03-0.25,0.15-0.37,0.23-0.63
		c0.08-0.28,0.08-0.86,0.18-1.34c0.05-0.21,0.28-0.74,0.23-1.08c-0.03-0.33-0.5-0.99-0.91-1.09c-0.53-0.16-1.09,0.17-1.76,0.12
		c-0.58-0.4-0.53-1.41-1.39-1.54c-1.09-0.17-2.22,0.28-2.98,0.63c-0.43,0.2-0.88,0.5-1.26,0.53c-0.38,0.03-0.74-0.21-1.09-0.25
		c-0.46-0.05-1.04,0-1.49,0.1c-0.43,0.08-0.83,0.41-1.23,0.43c-0.74,0.07-1.44-0.71-1.89-1.09c-0.3-0.23-0.58-0.43-0.86-0.66
		c-0.28-0.23-0.66-0.38-0.89-0.61c-0.3-0.3-0.3-0.83-0.45-1.26c-0.17-0.48-0.76-0.83-1.19-1.29c-0.32-0.36-1.06-0.86-1.16-1.29
		c-0.03-0.23,0.1-0.51,0.07-0.74c0-0.35-0.25-0.56-0.25-0.81c0-0.37,0.41-0.63,0.48-0.93c0.05-0.16,0.03-0.38,0.08-0.58
		c0.13-0.41,0.38-0.66,0.33-1.26c-0.03-0.23-0.23-0.46-0.23-0.76c-0.03-0.23,0.12-0.32,0.1-0.53c-0.02-0.35-0.45-0.4-0.5-0.81
		c-0.03-0.4,0.38-0.76,0.63-1.21c0.1-0.23,0.15-0.53,0.25-0.7c0.23-0.33,0.58-0.51,0.73-0.83c0.13-0.25,0.15-0.63,0.28-0.81
		c0.13-0.25,0.43-0.38,0.68-0.71c0.23-0.25,0.3-0.56,0.45-0.68c0.2-0.16,0.48-0.18,0.7-0.28c0.71-0.36,1.21-0.78,1.57-1.52
		c-0.1-0.65,0.05-0.9,0.3-1.36c0.23-0.43,0.4-0.83,0.81-1.06c0.48-0.28,0.93-0.32,1.26-0.85c0.17-0.25,0.43-0.74,0.43-1.01
		c0-0.4-0.4-0.9-0.73-0.98c-0.36-0.05-0.89,0.28-1.09-0.1c-0.05-0.12,0.03-0.43,0-0.57c-0.03-0.26-0.25-0.46-0.25-0.66
		c-0.03-0.38,0.36-0.76,0.45-1.21c0.15-0.57,0-1.03-0.03-1.74c0.53-0.88,1.72-0.45,2.91-0.36c0.17,0,0.37-0.05,0.57-0.05
		c0.71,0.03,1.27,0.26,1.49-0.4c0.08-0.23,0.17-1.14,0.12-1.36c-0.07-0.28-0.57-0.98-0.81-1.14c-0.37-0.28-0.93-0.15-1.16-0.61
		c0.17-0.81,1.03-0.15,1.54-0.32c0.25-0.1,0.23-0.58,0.45-0.66c0.16-0.05,0.36,0.17,0.58,0.16c0.17,0,0.86-0.36,1.03-0.48
		c0.25-0.17,0.33-0.53,0.53-0.68c0.15-0.1,0.36-0.1,0.5-0.17c0.33-0.13,0.74-0.43,0.96-0.74c0.3-0.37,0.45-0.88,0.83-0.96
		c0.53-0.1,1.69,0.1,1.76-0.48c0.08-0.58-0.48-1.01-0.28-1.64c0.18-0.48,0.58-0.38,1.16-0.68c0.28,0.2,0.2,0.81,0.23,1.19
		c0.36,0,1.09-0.13,1.16-0.45c0.08-0.43-0.53-0.83-0.66-1.09c-0.15-0.28-0.17-0.76-0.45-0.81c-0.58-0.13-1.16,0.83-1.89,0.83
		c-0.48,0-0.98-0.37-1.11-0.76c-0.08-0.23,0-0.43-0.03-0.65c-0.05-0.33-0.25-0.68-0.15-1.14c0.28-0.53,0.96-0.61,1.43-0.88
		c0.21-0.1,0.33-0.33,0.56-0.4c0.33-0.15,0.83,0,1.19-0.21c0.2-0.12,0.15-0.35,0.3-0.6c0.1-0.18,0.33-0.28,0.45-0.46
		c0.1-0.12,0.1-0.32,0.2-0.45c0.33-0.43,0.94-0.61,1.19-1.03c0.1-0.2-0.2-0.28-0.13-0.58c0.13-0.28,0.61-0.08,0.88-0.12
		c0.38-0.05,0.73-0.56,1.16-0.63c0.43-0.1,0.88-0.05,1.29-0.23c0.25-0.08,0.48-0.33,0.7-0.36c0.08-0.03,0.3,0.05,0.41,0.05
		c0.15-0.03,0.3-0.1,0.5-0.13c0.28-0.05,0.63,0.08,1.01,0.08c0.61,0,1.16-0.2,1.67,0.03c0.28,0.12,0.25,0.45,0.58,0.58
		c0.17,0.05,0.4-0.03,0.66,0c0.37,0.03,0.76,0.3,1.26,0.35c0.17,0.03,0.36-0.02,0.53,0c0.56,0.08,1.16,0.38,1.69,0.58
		c0.45,0.16,1.41,0.36,1.41,0.81c0.03,0.53-0.81,0.68-1.18,0.68c-0.61,0-1.39-0.38-2.02-0.15c0,0.91,0.94,1.61,1.8,1.49
		c0.07-0.43-0.48-0.18-0.43-0.61c0.41-0.3,0.86,0.2,1.39,0.13c0.23-0.05,0.17-0.38,0.23-0.61c0.45-0.3,1.03-0.73,1.74-0.41
		c0.03-0.07,0.07-0.12,0.15-0.17c0.05-0.43-0.45-0.66-0.2-1.09c0.12-0.28,0.86-0.17,0.96,0.05c0.05,0.25-0.17,0.23-0.15,0.48
		c0.12,0.33,0.45,0.38,0.61,0.36c0.37,0,0.45-0.38,0.81-0.56c0.15-0.08,0.35-0.1,0.53-0.18c0.23-0.07,0.4-0.27,0.58-0.3
		c0.12-0.05,0.32,0,0.5-0.05c0.23-0.05,0.45-0.25,0.65-0.25c0.23,0,0.41,0.3,0.68,0.33c0.15,0.02,0.35-0.1,0.58-0.13
		c0.17,0,0.37,0.03,0.53,0c0.37-0.05,0.63-0.25,0.93-0.23c0.2,0,0.58,0.3,0.73,0.15c0.23-0.25-0.35-0.45-0.17-0.68
		c0.61,0.05,1.23,0.03,1.82,0.12c0.88,0.13,1.69,0.58,2.5,0.61c-0.08-0.56-0.7-0.4-0.96-0.65c-0.1-0.08-0.43-0.66-0.43-0.86
		c0-0.08,0.43-0.86,0.53-0.96c0.36-0.33,1.44-0.33,1.77,0.13c0.23,0.3,0.15,0.78,0.45,0.76c0.28,0,0.43-0.7,0.73-0.73
		c0.25,0,0.41,0.45,0.66,0.45c0.3,0,0.53-0.63,0.96-0.66c0.23,0,0.3,0.13,0.66,0.18c0.23-0.18-0.1-0.38,0.03-0.61
		c0.43-0.33,1.41-0.1,1.96-0.3c0.15-0.17-0.2-0.33-0.05-0.53c0.48-0.33,1.26-0.37,2.07-0.5c0.5-0.1,0.96-0.45,1.34-0.5
		c0.4-0.03,0.78,0.25,1.16,0.25c0.23,0,0.48-0.08,0.68-0.15c0.23-0.1,0.38-0.33,0.58-0.38c0.33-0.08,0.76,0.05,1.16,0
		c0.4-0.05,0.76-0.2,1.06-0.15c0.28,0.03,0.5,0.36,0.76,0.41c0.81,0.13,1.64-0.13,2.4,0.08c0.12,0.03,0.25,0.17,0.4,0.25
		c0.51,0.17,0.83,0.12,0.94,0.76c0.38,0.15,0.61,0.53,1.06,0.66c0.3,0.07,0.63-0.05,0.96-0.05c0.46,0,1.04,0.03,1.41,0.07
		c0.23,0.05,0.41,0.23,0.63,0.25c0.15,0.03,0.36-0.02,0.53,0c0.25,0.03,0.45,0.13,0.65,0.13c0.41-0.03,0.71-0.4,1.04-0.45
		c0.17-0.03,0.4,0.07,0.57,0.07c0.63,0.08,1.39-0.07,1.92,0.05c0.28,0.08,0.76,0.41,1.06,0.66c0.23,0.17,0.36,0.45,0.58,0.61
		c0.2,0.12,0.71,0.35,0.91,0.32c0.25-0.05,0.25-0.32,0.5-0.45c0.76-0.17,2.12,0.25,2.73-0.05c0.23-0.1,0.17-0.37,0.37-0.5
		c1.16-0.08,2.3,0.05,3.38,0.08c0.37,0,0.76-0.1,1.11-0.05c0.37,0.08,0.65,0.48,1.03,0.61c0.25,0.1,0.68,0.05,1.06,0.12
		c0.25,0.05,0.48,0.23,0.66,0.25c0.4,0.05,0.81-0.05,1.18-0.07c0.88-0.08,2.02-0.13,2.87,0.23c0.46,0.2,0.66,0.61,1.16,0.65
		c0.71,0.08,1.79-0.07,2.53,0c0.17,0,0.33,0.08,0.45,0.08c0.25-0.03,0.41-0.23,0.7-0.25c0.38,0,0.96,0.63,1.52,0.53
		c0.25-0.15-0.18-0.4,0.05-0.56c0.2-0.2,0.5,0,0.83,0c0.17,0,0.4-0.1,0.58-0.08c0.43,0.03,0.83,0.43,1.34,0.56
		c0.43,0.1,0.99,0.15,1.49,0.08c0.37-0.03,0.7-0.17,1.03-0.13c0.17,0.05,0.33,0.18,0.5,0.23c0.18,0.03,0.33,0,0.45,0.03
		c0.13,0.05,0.26,0.17,0.41,0.2c0.7,0.23,1.64,0.33,2.4,0.58c0.45,0.12,0.91,0.43,1.26,0.43C675.11,7.54,675.26,7.44,675.49,7.44
		L675.49,7.44z M641.8,16.85c0.15-0.53-0.07-1.03-0.37-1.38c-0.46,0.07-0.13,0.57-0.15,0.85c-0.05,0.41-0.45,0.68-0.43,1.09
		c-0.15,0.21-0.41,0.25-0.41,0.58c0.23,0.17,0.33-0.15,0.53-0.33C641.25,17.36,641.71,17.21,641.8,16.85L641.8,16.85z M631.77,2.8
		c-0.41,0-0.58,0.15-0.83,0.3c-0.16,0.1-0.43,0.13-0.36,0.38C630.96,3.43,631.69,3.26,631.77,2.8L631.77,2.8z M623.72,21.93
		c-0.13-0.33-0.56,0.07-0.38,0.35C623.59,22.3,623.69,22.13,623.72,21.93L623.72,21.93z M615.59,7.77c0.9,0.23,1.34-0.86,0.73-1.46
		c-0.12-0.13-0.61-0.21-0.81-0.53c-0.23-0.38-0.2-0.91-0.76-0.81c0,0.05,0,0.12-0.05,0.12c-0.05,0.88,1.19,1.11,1.16,1.81
		C615.87,7.29,615.49,7.34,615.59,7.77L615.59,7.77z M614.79,23.56c0.63-0.12,0.03-1.16-0.46-1.03
		C613.73,22.68,614.38,23.67,614.79,23.56L614.79,23.56z M611.96,28.81c0.21-1.41-0.83-1.51-1.03-2.53c0.1,0.03,0.05-0.12,0.13-0.12
		c0.25-0.13,0.63,0.2,0.76-0.13c0-0.48-0.58-0.83-1.16-0.61c-0.15-0.1-0.17-0.37-0.23-0.63c-0.43-0.28-1.51-0.88-1.49-1.44
		c0.02-0.43,0.55-0.68,1.18-0.68c0.28-0.21,0.1-0.86-0.15-1.01c-0.99-0.23-1.52-0.07-2.14,0.41c-0.3,0.23-0.63,0.38-0.81,0.53
		c-0.16,0.13-0.36,0.48-0.36,0.66c0.03,0.23,0.38,0.37,0.5,0.7c0.08,0.17,0.05,0.4,0.13,0.53c0.15,0.4,0.57,0.66,0.9,0.98
		c0.23,0.23,0.88,0.74,0.88,1.01c0.03,0.23-0.2,0.28-0.25,0.53c-0.08,0.23-0.17,0.81-0.13,1.01c0.08,0.45,0.53,0.45,0.91,0.65
		c0.41,0.18,0.78,0.51,1.19,0.53C611.25,29.21,611.71,29.07,611.96,28.81L611.96,28.81z M602.95,25.89c1.03-0.2,0.56-1.14,0.05-1.47
		c-0.41-0.25-0.89-0.48-1.34-0.76c-0.28-0.17-1.32-0.5-1.32-0.86c0-0.37,0.76-0.5,0.46-1.18c-0.53-0.13-1.77,0.07-1.69,0.7
		c0.05,0.36,0.45,0.15,0.56,0.53c-0.38,0.13-0.83,0.5-1.23,0.43c-0.48-0.07-0.58-0.68-0.83-1.06c-0.38,0.03-0.61-0.35-1.04-0.3
		c-0.45,0.05-0.7,0.73-0.93,1.08c-0.13,0.18-0.3,0.28-0.38,0.46c-0.05,0.1,0,0.25-0.05,0.4c-0.13,0.43-0.51,0.61-0.46,1.01
		c0.03,0.35,0.41,0.5,0.43,0.81c-0.03,0.3-0.5,0.15-0.46,0.53c0.68,0.6,0.71-0.28,1.06-0.41c0.28-0.1,0.83,0.08,1.19,0
		c0.3-0.08,0.53-0.36,0.86-0.5c0.2-0.08,0.43-0.13,0.7-0.15c1.24-0.05,2.02,0.78,3.08,0.81C601.96,25.96,602.6,25.96,602.95,25.89
		L602.95,25.89z M600.51,30.65c0.03-0.43-0.15-0.76-0.2-1.36c-0.71-0.45-1.24,0.41-1.94,0.33c-0.45-0.08-0.76-0.61-1.24-0.53
		c-0.25,0.03-0.37,0.37-0.65,0.43c-0.53,0.13-0.78-0.45-1.36-0.23c-0.83-0.65-1.19-1.74-1.39-2.95c-0.45-0.63-1.14-0.12-1.46,0.28
		c-0.21,0-0.46-0.12-0.48,0.13c-0.15,0.73,0.99,0.83,0.99,1.34c0,0.32-0.46,0.3-0.66,0.53c-0.2,0.23-0.08,0.45-0.33,0.6
		c-0.76,0.08-1.01-0.35-1.01-1.06c-0.33-0.53-0.73-0.9-1.03-1.34c-0.1-0.15-0.28-0.4-0.3-0.65c-0.03-0.18,0.08-0.43,0.05-0.63
		c-0.1-0.4-0.78-0.68-1.21-0.91c-0.45-0.23-1.01-0.43-1.34-0.73c-0.23-0.2-0.32-0.56-0.53-0.68c-0.17-0.13-0.37-0.1-0.53-0.21
		c-0.23-0.15-0.17-0.4-0.48-0.48c-0.13-0.07-0.36,0.16-0.45,0.28c-0.18,0.88,0.5,0.94,0.81,1.34c0.23,0.28,0.32,0.68,0.53,0.86
		c0.25,0.17,0.56,0.15,0.86,0.28c0.2,0.08,0.32,0.36,0.53,0.48c0.37,0.23,0.96,0.28,1.01,0.74c-0.23,0.17-0.76-0.23-0.94,0.15
		c-0.05,0.28,0.21,0.4,0.21,0.66c-0.03,0.4-0.43,0.83-0.81,0.78c-0.05-0.25,0.2-0.43,0.17-0.71c0-0.5-0.98-1.29-1.49-1.54
		c-0.23-0.1-0.5-0.1-0.73-0.23c-0.37-0.23-1.03-0.78-1.26-1.11c-0.28-0.38-0.5-1.08-1.11-1.03c-0.25,0-0.45,0.25-0.66,0.35
		c-0.17,0.1-0.37,0.21-0.56,0.33c-0.23,0.15-0.4,0.3-0.63,0.33c-0.48,0.03-0.89-0.38-1.29-0.3c-0.15,0.05-0.25,0.18-0.43,0.33
		c0,0.25,0.08,0.4,0.03,0.66c-0.1,0.23-0.48,0.2-0.76,0.37c-0.41,0.2-0.76,0.66-1.06,1.01c-0.23,0.21-0.41,0.38-0.43,0.56
		c-0.02,0.13,0.1,0.38,0.08,0.58c-0.03,0.17-0.37,0.58-0.61,0.76c-0.15,0.1-0.32,0.13-0.48,0.21c-0.3,0.2-0.43,0.43-0.68,0.48
		c-0.68,0.15-1.89-0.13-1.87,0.63c0,0.48,0.63,0.48,1.03,0.48c0.53-0.03,0.98,0.12,1.29,0.03c0.2-0.05,0.43-0.3,0.66-0.41
		c0.12-0.05,0.28-0.05,0.37-0.12c0.23-0.1,0.36-0.3,0.56-0.41c0.33-0.15,0.98-0.3,1.36-0.3c0.53-0.05,1.06,0.05,1.74,0
		c0.23-0.03,0.45-0.2,0.7-0.23c0.43-0.03,0.98,0.17,1.31,0.17c0.23,0,0.5-0.25,0.76-0.25c0.33,0,0.66,0.25,0.71,0.46
		c0.03,0.12-0.08,0.3-0.05,0.48c0.05,0.3,0.28,0.43,0.28,0.61c-0.03,0.25-0.63,0.6-0.53,0.9c0.05,0.18,0.48,0.38,0.68,0.53
		c0.23,0.13,0.58,0.33,0.83,0.36c0.23,0.03,0.43-0.08,0.63-0.05c0.33,0.05,0.86,0.25,1.06,0.43c0.36,0.25,0.3,0.68,0.73,0.83
		c0.17,0.08,0.5,0.03,0.73,0.08c0.56,0.15,0.96,0.63,1.39,0.58c0.63-0.08,0.33-0.73,0.41-1.19c0.17-1.03,2.09-0.98,2.45-0.28
		c0.3,0.08,0.53,0.03,0.85,0.13c0.18,0.05,0.33,0.28,0.51,0.33c0.12,0.03,0.32-0.03,0.48,0c0.73,0.07,1.41,0.65,2.04,0.56
		c0.41-0.05,0.68-0.46,1.06-0.48c0.74-0.05,1.21,0.58,2,0.28c0.58-0.2,0.45-0.85,0.65-1.49C600.23,31.31,600.48,31.01,600.51,30.65
		L600.51,30.65z M600.45,66.46c0.17-0.3,0.41-1.14,0-1.34c-0.03,0-0.05,0-0.08,0C600.23,65.45,600.03,66.26,600.45,66.46
		L600.45,66.46z M599.92,57.98c0.13-0.28,0.43-0.58,0.38-0.94c-0.1-0.78-1.49-0.4-1.64,0.15c-0.1,0.38,0.07,0.68-0.08,1.07
		c0.15,0.3,0.53,0.35,0.98,0.32C599.85,58.46,599.79,58.23,599.92,57.98L599.92,57.98z M597.58,62.14c0.15-0.28-0.23-0.48-0.3-0.81
		c-0.08-0.38,0.1-0.81-0.23-1.01c-0.03,0-0.08,0-0.1,0C596.67,60.98,597.05,62.09,597.58,62.14L597.58,62.14z M593.87,12.11
		c-0.81-0.73-2.2,0.25-3.11,0.2c-0.38-0.03-0.91-0.33-1.03-0.73c-0.03-0.13,0-0.3-0.03-0.53c-0.05-0.25-0.17-0.53-0.17-0.68
		c0.05-0.73,1.76-0.88,1.76-1.79c-0.33-0.33-1.29-0.28-1.59,0.08c-0.13,0.15-0.13,0.4-0.28,0.65c-0.36,0.56-1.47,0.63-1.79,1.29
		c-0.1,0.15-0.23,0.57-0.18,0.83c0.1,0.37,0.91,0.48,0.94,0.88c0.05,0.68-0.98,0.58-1.11,1.19c-0.05,0.25,0.13,0.61,0.08,0.83
		c-0.08,0.43-0.48,0.3-0.96,0.53c-0.25,0.12-0.5,0.53-0.76,0.58c-0.25,0.03-0.43-0.18-0.58-0.13c-0.25,0.05-0.17,0.38-0.56,0.43
		c-0.28,0.05-0.81-0.27-0.83,0.13c-0.03,0.25,0.46,0.41,0.76,0.38c0.25-0.03,0.43-0.21,0.65-0.21c0.45,0,0.76,0.36,1.03,0.36
		c0.66,0.03,1.31-0.63,2-0.56c0.33,0.03,0.5,0.25,0.73,0.23c0.38-0.03,0.68-0.48,0.96-0.63c-0.13-0.68,0.03-1.59,0.6-1.64
		c0.43-0.03,1.04,0.76,1.11,0c0.05-0.33-0.33-0.61-0.56-0.61c-0.23,0-0.53,0.48-0.7,0.08c0-0.36,0.4-0.25,0.63-0.36
		c0.15-0.08,0.28-0.25,0.45-0.33C592.26,12.26,593.52,12.92,593.87,12.11L593.87,12.11z M593.87,12.11"/>
	<path class="st0" d="M559.56,58.66c0.08,1.47-0.98,1.94-1.61,2.93c-0.13,0.2-0.2,0.53-0.38,0.81c-0.37,0.58-0.78,0.68-0.73,1.74
		c0.03,0.28,0.15,0.58,0.15,0.88c0,0.41-0.03,0.91-0.1,1.27c-0.08,0.28-0.28,0.48-0.33,0.73c-0.03,0.25,0.08,0.43,0.05,0.66
		c-0.03,0.23-0.25,0.55-0.43,0.88c-0.36,0.68-0.43,1.52-1.14,1.8c-0.43,0.15-1.01,0.07-1.47,0.23c-0.17,0.07-0.43,0.25-0.65,0.37
		c-0.66,0.33-1.61,0.76-1.8,1.49c-0.17,0.65,0.23,1.16,0.1,1.92c-0.1,0.2-0.28,0.43-0.45,0.68c-0.16,0.23-0.25,0.5-0.43,0.73
		c-0.23,0.3-0.58,0.43-0.7,0.86c-0.05,0.13-0.03,0.3-0.08,0.5c-0.03,0.1-0.17,0.23-0.25,0.38c-0.05,0.15-0.05,0.33-0.1,0.45
		c-0.17,0.36-0.7,1.21-1.08,1.34c-0.78,0.23-1.61-0.37-2.16-0.25c0.07,0.41,0.35,0.36,0.53,0.66c0.1,0.15,0.15,0.37,0.3,0.56
		c0.18,0.2,0.33,0.3,0.36,0.53c0.05,0.5-0.33,1.01-0.58,1.18c-0.23,0.16-0.7,0.25-1.11,0.3c-0.28,0.05-1.01,0.05-1.16,0.25
		c-0.18,0.28,0.12,0.99-0.03,1.27c-0.28,0.57-1.06-0.03-1.47,0.15c-0.03,0.3,0.08,0.63,0.3,0.78c0.25,0.16,0.61-0.05,0.78,0.23
		c-0.07,0.41-0.5,0.46-0.58,0.86c0,0.38,0.13,0.48,0.08,0.73c-0.1,0.53-0.86,0.51-0.83,1.06c0.03,0.83,1.49,0.48,1.52,1.29
		c0.02,0.5-0.41,0.5-0.56,0.98c-0.1,0.25,0.03,0.3,0,0.53c-0.08,0.28-0.41,0.36-0.41,0.68c0,0.37,0.56,0.81,0.81,1.13
		c0.28,0.3,0.61,0.76,0.96,0.96c0.53,0.33,1.34,0.25,1.56,0.83c-0.05,0.32-0.38,0.43-0.68,0.5c-0.03,0-0.05,0-0.07,0
		c-0.1-0.05-0.48-0.05-0.58,0c-0.18,0-0.36,0-0.53,0c-0.5-0.23-1.14-0.41-1.77-0.63c-0.23-0.1-0.48-0.3-0.73-0.4
		c-0.17-0.1-0.38-0.13-0.53-0.21c-0.33-0.2-0.7-0.78-1.03-1.01c-0.2-0.15-0.53-0.23-0.66-0.37c-0.12-0.13-0.17-0.43-0.3-0.61
		c-0.12-0.18-0.35-0.33-0.5-0.53c-0.3-0.46-0.7-1.03-0.73-1.39c0-0.3,0.3-0.53,0.2-0.83c-0.1-0.3-0.68-0.23-0.76-0.58
		c-0.05-0.2,0.15-0.56,0.15-0.83c-0.02-0.17-0.32-0.4-0.2-0.65c0.16-0.28,0.41,0.03,0.61-0.13c-0.15-0.58,0.03-1.51-0.53-1.69
		c-0.28,0.26,0.3,0.81-0.17,0.96c-0.48-0.2-0.38-0.86-0.48-1.34c-0.05-0.3-0.2-0.58-0.23-0.94c0-0.17,0.08-0.37,0.05-0.56
		c-0.08-0.56-0.66-1.01-0.7-1.54c0-0.28,0.17-0.5,0.2-0.78c0.03-0.17-0.03-0.4,0-0.61c0.03-0.25,0.17-0.5,0.2-0.73
		c0.03-0.45,0-1.21-0.08-1.56c-0.1-0.48-0.45-0.88-0.5-1.39c-0.03-0.17,0.05-0.5,0.03-0.73c0-0.23-0.12-0.43-0.15-0.68
		c0-0.23,0.05-0.45,0.07-0.73c0.05-0.5-0.07-1.08-0.07-1.59c0.03-0.16,0.1-0.25,0.07-0.41c0-0.4-0.12-0.83-0.15-1.26
		c-0.03-0.76,0.08-1.31-0.03-2.02c-0.1-0.54-0.2-1.36-0.37-1.69c-0.23-0.38-1.01-1.03-1.44-1.27c-0.25-0.15-0.58-0.23-0.88-0.37
		c-0.61-0.33-1.81-1.01-2.09-1.67c-0.08-0.17-0.08-0.43-0.15-0.63c-0.18-0.43-0.54-0.78-0.79-1.18c-0.45-0.76-0.83-1.72-1.34-2.5
		c-0.23-0.4-0.45-0.86-0.73-1.18c-0.15-0.18-0.65-0.36-0.7-0.66c-0.1-0.36-0.36-0.89-0.33-1.16c0.08-0.4,0.78-0.7,0.78-1.06
		c0-0.3-0.38-0.48-0.45-0.73c-0.21-0.61,0.1-0.98,0.33-1.49c0.07-0.17,0.15-0.45,0.23-0.57c0.15-0.23,0.43-0.28,0.63-0.53
		c0.1-0.13,0.16-0.41,0.3-0.61c0.28-0.41,0.76-0.56,0.89-0.94c0.1-0.3,0.15-1.79,0.03-2.29c-0.05-0.3-0.3-0.53-0.41-0.81
		c-0.17-0.5-0.23-1.03-0.7-1.03c-0.28,0.03-0.5,0.35-0.68,0.58c-0.05,0.27-0.02,0.6-0.3,0.68c-1.97,0.63-1.59,4.64-3.78,1.51
		c-0.08-0.2,0-0.56-0.03-0.81c-0.43-0.28-0.78-1.23-1.27-1.46c-0.32-0.16-0.83-0.16-1.23-0.28c-0.17-0.08-0.33-0.18-0.53-0.2
		c-0.25-0.08-0.5-0.08-0.68-0.18c-0.79-0.4-1.19-1.69-2.12-1.67c-0.4,0.03-0.78,0.41-1.16,0.41c-0.36,0-0.96-0.3-1.41-0.53
		c-0.48-0.23-0.98-0.36-1.39-0.56c-0.3-0.17-0.53-0.48-0.78-0.61c-0.23-0.1-0.53-0.12-0.7-0.2c-0.23-0.13-0.5-0.38-0.81-0.61
		c-0.28-0.23-0.58-0.53-0.61-0.81c0-0.33,0.28-0.61,0.3-0.9c0.1-0.96-0.58-1.64-0.99-2.22c-0.32-0.43-0.68-0.78-1.01-1.19
		c0.03-0.25,0.03-0.3,0-0.56c-0.23-0.25-0.43-0.6-0.68-0.98c-0.23-0.33-0.68-0.68-0.74-1.03c-0.07-0.46,0.18-0.86,0-1.31
		c-0.28-0.74-1.23-0.41-1.1,0.58c0.02,0.25,0.37,0.63,0.5,0.88c0.1,0.28,0.07,0.61,0.17,0.94c0.1,0.3,0.41,0.58,0.5,0.93
		c0.18,0.56,0.15,1.16,0.3,1.49c0.13,0.33,0.63,0.61,0.36,0.98c-0.36,0.08-0.5-0.3-0.74-0.53c-0.12-0.12-0.57-0.36-0.65-0.65
		c-0.05-0.23,0.15-0.56,0.08-0.83c-0.13-0.58-1.21-0.61-1.21-1.19c0-0.38,0.45-0.4,0.45-0.76c0-0.41-0.5-0.73-0.6-1.06
		c-0.1-0.3-0.13-0.78-0.15-1.21c-0.05-0.4,0-0.88-0.1-1.18c-0.08-0.28-0.46-0.66-0.71-0.81c-0.35-0.21-0.61-0.13-0.78-0.41
		c-0.12-0.25-0.23-0.78-0.25-1.06c-0.08-0.48-0.03-1.01-0.05-1.54c-0.03-0.53-0.07-1.01,0-1.59c0.21-0.38,0.53-0.58,0.74-0.96
		c0.12-0.28,0.15-0.6,0.3-0.88c0.28-0.53,0.89-1.04,1.32-1.54c0.43-0.58,0.85-1.11,1.1-1.76c0.08-0.23,0.33-0.73,0.3-1.01
		c-0.05-0.38-0.76-0.71-0.68-1.16c0.03-0.3,0.4-0.28,0.53-0.58c0.05-0.12,0.1-0.56,0.1-0.73c0.03-0.38-0.17-0.78-0.1-1.21
		c0.05-0.35,0.56-0.5,0.3-0.88c-0.25-0.38-0.71,0.2-0.99-0.05c-0.28-0.23,0.05-0.5,0.08-0.94c0-0.15-0.1-0.35-0.08-0.48
		c0.03-0.17,0.36-0.48,0.25-0.61c-0.2-0.28-0.43-0.98-0.88-1.21c-0.56-0.3-1.16-0.1-1.94-0.25c-0.48-0.08-0.7-0.56-1.16-0.53
		c-0.28,0.03-0.43,0.35-0.81,0.53c-0.35,0.17-0.86,0.12-1.21,0.2c-0.38,0.1-0.56,0.36-0.94,0.33c-0.3-0.03-0.3-0.33-0.68-0.36
		c-0.16-0.03-0.43,0.08-0.66,0.1c-0.58,0.07-1.67,0.1-2.24-0.03c-0.56-0.13-0.91-0.3-1.52-0.61c-0.45-0.23-1.29-0.5-1.26-0.86
		c0.03-0.23,0.81-0.45,1.11-0.56c0.5-0.17,0.81-0.43,1.18-0.45c0.15-0.03,0.36,0.1,0.56,0.08c0.18,0,0.43-0.21,0.68-0.23
		c0.53-0.1,1.29,0.02,1.21-0.54c-0.4-0.35-2.04,0.26-2.09-0.5c-0.03-0.43,0.63-0.57,1.11-0.68c0.43-0.1,1.11-0.25,1.49-0.25
		c0.46,0.03,1.01,0.56,1.27-0.03c0.12-0.41-0.16-0.76-0.23-1.09c0.32-0.48,0.93-0.43,1.38-0.5c0.53-0.08,0.94-0.18,1.47-0.41
		c0.43-0.2,0.91-0.32,1.44-0.4c0.53-0.08,1.03-0.28,1.51-0.33c0.38-0.03,0.73,0,1.11-0.08c0.33-0.07,0.65-0.25,1.03-0.25
		c0.23,0.03,0.43,0.21,0.68,0.25c0.23,0.05,0.48,0,0.74,0.05c0.17,0.03,0.35,0.16,0.53,0.2c0.3,0.03,0.61-0.05,0.88,0
		c0.26,0.03,0.48,0.21,0.74,0.23c0.58,0.07,1.26-0.03,1.84,0.07c0.2,0.05,0.4,0.18,0.65,0.23c0.23,0.03,0.46-0.02,0.68,0.03
		c0.3,0.08,0.56,0.38,0.88,0.41c0.58,0.08,1.26-0.28,1.87-0.33c0.45-0.03,0.9,0.03,1.39-0.08c0.43-0.1,0.83-0.25,1.23-0.28
		c0.2,0,0.38,0.08,0.56,0.03c0.2-0.03,0.45-0.28,0.65-0.23c0.28,0.05,0.23,0.43,0.54,0.53c0.35-0.2,0.68,0,1.03,0
		c0.37-0.03,0.68-0.2,1.09-0.12c0.7,0.1,1.66,0.83,2.22,0.45c0.15-0.1,0.1-0.28,0.23-0.53c0.17-0.36,0.5-0.76,0.43-1.26
		c-0.78,0-1.51,0.4-2.37,0.43c-0.88-0.58,0.23-0.94,0.88-1.21c0.54-0.2,0.94-0.7,1.6-0.81c0.56-0.07,1.13,0.13,1.76,0.21
		c0.38,0.05,0.76-0.03,0.96,0.05c0.38,0.1,0.58,0.5,0.89,0.6c0.15,0.03,0.35,0.03,0.53,0.08c0.36,0.08,0.66,0.28,1.01,0
		c0.28,0.05,0.3,0.36,0.58,0.41c0.25-0.16,0.46-0.51,0.83-0.61c0.18-0.03,0.36,0.03,0.53,0c0.33-0.05,0.74-0.5,0.94-0.08
		c-0.08,0.28-0.5,0.33-0.74,0.56c-0.2,0.2-0.53,0.68-0.5,0.91c0.05,0.37,0.61,0.23,0.63,0.73c-0.1,0.28-0.4,0.15-0.66,0.28
		c-0.25,0.1-0.32,0.36-0.57,0.4c-0.71,0.13-1.29-0.17-1.87-0.17c-0.03,0.28,0.28,0.45,0.45,0.53c0.53,0.3,0.98,0.28,1.76,0.25
		c0.38,0,0.83,0.13,1.19-0.12c0.2-0.15,0.2-0.51,0.37-0.68c0.21-0.23,0.71-0.45,1.04-0.4c0.17,0.03,0.43,0.25,0.43,0.4
		c0,0.36-0.5,0.25-0.5,0.66c0.33,0.2,1.19-0.23,1.21-0.58c0.05-0.25-0.28-0.41-0.25-0.66c0.03-0.4,0.56-0.4,0.5-0.83
		c-0.27-0.23-0.55,0.03-0.81,0c-0.37-0.07-0.73-0.56-0.88-0.85c0.15-0.23,0.5-0.08,0.76-0.05c0.28-0.41,0.81-0.56,1.54-0.63
		c0.25-0.03,0.61-0.15,0.74,0.1c0.05,0.4-0.56,0.63-0.43,1.06c0.5,0.15,0.68-0.61,1.11-0.88c0.2-0.12,0.45-0.23,0.73-0.33
		c0.23-0.1,0.5-0.33,0.68-0.33c0.23,0,0.25,0.21,0.48,0.28c0.17,0.1,0.43-0.05,0.48,0.21c-0.43,0.83-2.09,0.35-2.52,1.18
		c0.1,0.56-0.26,1.09,0.05,1.47c0.21,0.25,0.68,0.08,0.78,0.36c0.15,0.37-0.45,0.37-0.3,0.81c0.4,0.28,0.9-0.23,1.26-0.43
		c0.4-0.23,0.93-0.48,0.96-0.98c-0.2-0.41-0.96-0.08-1.06-0.53c-0.07-0.23,0.23-0.76,0.3-0.83c0.41-0.48,1.79-1.16,2.8-1.06
		c0.17,0.03,0.37,0.12,0.58,0.15c0.65,0.08,1.43-0.3,1.94,0c0.43-0.25,0.91,0.05,1.49-0.03c0.45,0.28,0.33,0.86,1.01,1.14
		c0.17,0.08,0.41,0,0.66,0.08c0.17,0.05,0.35,0.25,0.56,0.36c0.3,0.15,0.53,0.12,0.57,0.32c0.08,0.23-0.2,0.36-0.17,0.58
		c0.15,0.13,0.03,0.36,0.1,0.56c0.17,0.38,0.58,0.36,1.01,0.53c0.28,0.13,0.91,0.5,0.88,0.81c-0.03,0.2-0.58,0.56-0.78,0.66
		c-0.13,0.07-0.79,0.4-0.99,0.35c-0.37-0.05-0.5-0.83-1.01-0.81c-0.2,0-0.41,0.15-0.41,0.46c-0.02,0.53,0.56,0.56,0.56,1.01
		c0.03,0.56-0.28,0.58-0.73,0.93c-0.3-0.12-0.58-0.32-0.98-0.35c-0.25,0.3,0.4,0.4,0.2,0.81c-0.63,0.12-1.09-0.2-1.67-0.38
		c-0.17-0.05-0.43-0.03-0.58-0.12c-0.2-0.13-0.28-0.53-0.45-0.74c-0.2-0.23-0.61-0.56-0.96-0.56c-0.46,0-1.16,0.63-1.52,0.05
		c0.25-0.93,1.49-0.25,2.3-0.58c0.3-0.12,0.4-0.45,0.63-0.6c0.51-0.3,1.32-0.36,1.24-0.94c-0.03-0.3-0.43-0.3-0.66-0.45
		c-0.3-0.2-0.53-0.94-0.96-0.96c-0.2-0.03-0.38,0.18-0.61,0.21c-0.5,0.05-1.06-0.23-1.49,0c-0.21,0.12-0.08,0.32-0.23,0.56
		c-0.15,0.2-0.45,0.25-0.57,0.45c-0.15,0.23-0.13,0.5-0.3,0.68c-0.33,0.3-0.99,0.36-1.39,0.5c-0.17,0.05-0.41,0.28-0.58,0.28
		c-0.3,0-0.45-0.45-0.81-0.28c-0.03,0.43,0.45,0.61,0.73,0.81c0.33,0.21,0.66,0.43,0.78,0.81c-0.32,0.71-0.81-0.05-1.31-0.05
		c-0.56,0-1.34,1.11-1.79,0.2c0.1-0.45,0.61-0.53,0.7-1.01c-0.53,0.1-1.01,0.57-1.64,0.73c-0.25,0.08-0.53,0.05-0.76,0.12
		c-0.45,0.13-0.78,0.51-1.26,0.68c-0.2,0.08-0.43,0.05-0.63,0.12c-0.45,0.16-1.01,0.46-1.49,0.74c-0.48,0.28-1.03,0.58-1.34,0.86
		c-0.18,0.15-0.58,0.68-0.58,0.83c0.03,0.26,0.45,0.33,0.45,0.58c0,0.15-0.23,0.46-0.08,0.68c0.18,0.2,0.48,0.05,0.81,0.07
		c0.58,0.08,0.99,0.61,1.41,0.86c0.36,0.21,0.86,0.43,1.24,0.48c0.53,0.07,1.11-0.15,1.18,0.3c0.08,0.43-0.5,0.58-0.53,0.83
		c0.28,0.41-0.2,0.61-0.2,0.94c0,0.28,0.33,0.7,0.63,0.73c0.37,0.03,0.93-0.4,1.1-0.81c0.18-0.48,0.1-1.14,0.46-1.49
		c1.79,0.05,3.28-0.86,3.18-2.8c-0.03-0.2-0.13-0.45-0.08-0.66c0.05-0.3,0.56-0.57,0.5-0.96c0.48-0.17,0.48-1.03,0.99-1.14
		c0.43-0.12,0.93,0.3,1.49,0.28c0.2-0.03,0.43-0.2,0.63-0.17c0.36,0.08,0.58,0.56,0.88,0.78c0.23,0.2,0.5,0.13,0.56,0.4
		c-0.08,0.46-0.38,0.46-0.33,0.88c0.03,0.38,0.37,0.66,0.56,0.71c0.3,0.05,0.68-0.1,0.96-0.25c0.53-0.26,0.96-1.04,1.39-0.94
		c0.33,0.08,0.61,1.21,0.66,1.61c0.05,0.45-0.05,0.78-0.05,1.19c0.05,0.68,0.88,0.6,1.26,0.96c0.13,0.13,0.17,0.41,0.28,0.53
		c0.2,0.28,0.43,0.28,0.45,0.58c0.08,0.68-0.58,0.76-0.53,1.54c-0.12,0.3-0.48,0.28-0.45,0.68c0.05,0.63,0.91,0.15,1.14,0.65
		c0.12,0.25,0,0.46-0.1,0.83c0.3,0.38,0.3,0.98-0.23,0.98c-0.33,0-0.41-0.35-0.73-0.45c-0.18-0.03-0.43-0.03-0.66-0.08
		c-0.2-0.02-0.43-0.1-0.61-0.12c-0.48-0.05-0.98,0.1-1.26-0.2c0.45-0.63,1.06-1.27,1.64-1.82c0.17-0.17,0.56-0.28,0.45-0.6
		c-0.33-0.3-0.73,0.03-1.03,0.2c-0.33,0.2-0.7,0.48-1.06,0.53c-0.63,0.1-1.49-0.2-2,0.15c-0.07,0.3,0.58,0.21,0.48,0.66
		c-0.25,0.05-0.48,0.08-0.68-0.13c-0.17-0.17-0.08-0.43-0.17-0.53c-0.2-0.17-0.96-0.2-1.29-0.15c-0.41,0.08-0.76,0.33-0.81,0.68
		c0.5,0.25,1.29-0.25,1.46,0.38c-0.25,0.5-0.88,0.78-0.81,1.44c0.05,0.28,0.33,0.63,0.56,0.65c0.2,0.05,0.33-0.17,0.53-0.15
		c0.2,0,0.15,0.28,0.43,0.23c0.35-0.15,0.56-0.7,0.98-0.68c0.5,0.66-0.45,0.96-0.98,1.19c-0.63,0.23-1.41,0.36-1.89,0.56
		c-0.25,0.1-1.16,1.06-1.32,0.33c-0.07-0.53,0.48-0.38,0.58-0.81c-0.58-0.13-1.13,0.28-1.69,0.48c-0.76,0.3-2.07,0.5-2.25,1.41
		c-0.05,0.2,0.08,0.53-0.05,0.65c-0.08,0.1-0.63,0.13-0.89,0.21c-0.35,0.12-0.68,0.43-0.9,0.48c-0.18,0.05-0.43,0.05-0.53,0.1
		c-0.33,0.1-0.43,0.56-0.78,0.83c-0.13,0.13-0.46,0.21-0.58,0.33c-0.18,0.2-0.23,0.73-0.56,0.81c-0.23,0.03-0.41-0.17-0.63-0.03
		c-0.03,0.5,0.18,1.21-0.03,1.74c-0.45,0.37-0.96,0.65-1.54,1.01c-0.33,0.17-0.61,0.23-0.98,0.45c-0.28,0.13-0.53,0.48-0.86,0.68
		c-0.73,0.45-1.61,0.98-1.61,2.14c0,0.25,0.12,0.53,0.15,0.81c0.03,0.17,0,0.35,0,0.53c0.05,0.43,0.36,0.96,0,1.26
		c-0.5-0.23-1.16-0.3-1.51-0.7c-0.1-0.38,0.2-0.71,0.15-1.09c-0.05-0.28-0.43-0.81-0.65-0.86c-0.23-0.03-0.45,0.23-0.68,0.2
		c-0.3-0.03-0.56-0.43-0.93-0.48c-0.53-0.08-0.94,0.13-1.54,0.05c-0.58,0.33-0.74,0.9-1.44,0.83c-0.25,0-0.48-0.21-0.78-0.28
		c-0.3-0.08-0.78-0.18-1.11-0.16c-0.66,0.05-1.11,0.53-1.69,0.83c-0.48,0.28-1.18,0.63-1.34,1.19c-0.08,0.3,0,0.73-0.1,1.01
		c-0.08,0.2-0.23,0.36-0.33,0.53c-0.41,0.83-0.78,1.92-0.46,3.13c0.05,0.18,0.48,1.16,0.66,1.36c0.2,0.23,0.78,0.58,1.11,0.58
		c0.28,0,0.61-0.15,0.89-0.2c0.32-0.08,0.7-0.08,1.01-0.17c0.81-0.28,0.65-1.47,1.49-1.87c0.36-0.15,0.78-0.21,1.41-0.23
		c0.2,0.18,0.3,0.48,0.28,0.76c-0.03,0.23-0.23,0.4-0.3,0.7c-0.1,0.25-0.12,0.56-0.2,0.76c-0.13,0.28-0.38,0.48-0.45,0.73
		c-0.08,0.18-0.03,0.38-0.08,0.53c-0.1,0.28-0.43,0.46-0.28,0.74c0.83,0.35,1.82-0.1,2.53,0.03c0.3,0.07,0.93,0.45,0.93,0.93
		c0,0.38-0.28,0.63-0.3,1.03c-0.05,0.5-0.25,1.11-0.28,1.52c-0.03,0.68,1.27-1.82,1.92-1.82c0.73,0,1.16-0.76,2.05-0.35
		c0.3,0.12,0.6,0.63,0.9,0.61c0.28-0.03,0.68-0.53,0.86-0.86c0.2-0.41,0.23-0.76,0.61-0.99c0.4-0.2,0.73-0.1,1.26-0.3
		c0.25-0.1,0.45-0.26,0.66-0.41c0.17-0.15,0.37-0.5,0.6-0.25c0.33,0.33-0.35,0.5-0.1,0.86c0.53,0.28,0.81-0.56,1.18-0.58
		c0.13,0,0.56,0.25,0.76,0.4c0.3,0.23,0.41,0.51,0.74,0.58c0.2,0.05,0.56-0.1,0.86-0.05c0.37,0.05,0.6,0.43,0.9,0.41
		c0.36,0,0.53-0.43,0.83-0.48c0.68-0.13,0.94,0.07,1.24,0.53c0.32,0.05,0.35-0.41,0.65-0.25c-0.17,0.35,0.05,0.53,0.17,0.81
		c0.1,0.2,0.08,0.32,0.18,0.4c0.17,0.2,0.53,0.2,0.78,0.38c0.3,0.17,0.45,0.53,0.78,0.93c0.33,0.41,0.88,0.81,1.34,0.86
		c0.43,0.03,0.76-0.12,1.11-0.1c0.78,0.1,1.29,0.53,1.84,0.98c0.3,0.25,0.58,0.43,0.68,0.73c0.08,0.2,0.03,0.48,0.13,0.73
		c0.17,0.51,0.86,0.74,0.61,1.61c0.12,0.25,0.37,0.36,0.65,0.53c0.23,0.13,0.41,0.43,0.66,0.48c0.15,0.03,0.33-0.05,0.45-0.03
		c0.43,0.03,0.73,0.2,1.11,0.35c0.23,0.1,0.53,0.13,0.68,0.26c0.2,0.12,0.23,0.6,0.48,0.73c0.15,0.08,0.5-0.05,0.76,0
		c0.4,0.05,0.96,0.3,1.34,0.3c0.23,0.03,0.4-0.08,0.61-0.08c0.96,0.08,1.49,1.26,2.4,1.61c0.28,0.12,0.7,0.05,0.9,0.12
		C559.23,57.07,559.53,58.18,559.56,58.66L559.56,58.66z M548.28,7.93c0.17,0.02,0.28-0.03,0.25-0.23
		C548.38,7.57,548.12,7.72,548.28,7.93L548.28,7.93z M543.86,3.96c-0.05-0.05-0.17-0.05-0.23,0c0,0.05,0,0.1,0,0.18
		C543.79,4.17,543.83,4.06,543.86,3.96L543.86,3.96z M535.81,23.87c-0.15-0.17-0.68-0.12-1.03-0.1c-0.25,0.03-0.56,0.1-0.58,0.3
		C534.6,24.25,535.69,24.4,535.81,23.87L535.81,23.87z M533.82,23.16c0.3-0.25,0.17-0.76-0.16-0.83c-0.12-0.05-0.3,0.1-0.5,0.08
		c-0.2-0.03-0.43-0.23-0.61-0.25c-0.3-0.03-0.6,0.12-0.73,0.28c0,0.25,0.17,0.3,0.15,0.53c-0.35,0.28-0.17,1.23,0.21,1.26
		c0.37,0.05,0.58-1.03,1.11-1.14C533.47,23.06,533.57,23.21,533.82,23.16L533.82,23.16z M534.08,46.1c0.3-0.05,0.2-0.78-0.15-0.61
		C533.64,45.64,533.8,46.15,534.08,46.1L534.08,46.1z M533.29,24.8c-0.56-0.23-1.06,0.12-1.49,0.2c-0.28,0.03-0.76-0.08-0.7,0.36
		c0.05,0.35,0.56,0.23,0.86,0.12C532.56,25.28,532.94,25.11,533.29,24.8L533.29,24.8z M531.6,21.72c0.76-0.35-0.16-1.41-0.5-1.51
		c-0.61-0.17-1.49,0.48-2.22,0.68c-0.4,0.13-0.78,0.13-0.88,0.5c0.38,0.63,1.09-0.15,1.61-0.05c0.28,0.05,0.43,0.43,0.68,0.48
		C530.49,21.88,531.52,21.75,531.6,21.72L531.6,21.72z M531.07,22.35c-0.15-0.2-1.03,0.03-1.26,0.2c-0.18,0.13-0.3,0.43-0.48,0.66
		c-0.17,0.23-0.37,0.4-0.53,0.6c-0.12,0.18-0.9,1.36-0.3,1.49c0.25,0.08,0.79-0.5,0.83-0.7c0.18-0.76,0.5-1.29,1.03-1.64
		C530.69,22.75,531.02,22.78,531.07,22.35L531.07,22.35z M529.3,7.09c0.13-0.1,0.33-0.21,0.23-0.41c-0.43-0.23-1.14-0.05-1.77-0.12
		c-0.36-0.53-0.93-0.61-0.98,0.25C527.49,7.41,528.57,6.51,529.3,7.09L529.3,7.09z M526.28,17.81c0.43,0,0.7-1.34,0-1.16
		C525.8,16.75,525.67,17.84,526.28,17.81L526.28,17.81z M524.21,48.22c0.03-0.05,0.05-0.1,0.08-0.18
		C524.16,47.63,523.81,48.19,524.21,48.22L524.21,48.22z M522.44,11.25c0.23-0.08,0.53-0.03,0.58-0.28
		c-0.18-0.15-0.38-0.35-0.58-0.37c-0.28,0-0.41,0.25-0.68,0.43c-0.32,0.17-0.78,0.2-0.81,0.5
		C521.53,11.66,522.09,11.38,522.44,11.25L522.44,11.25z M522.24,8.35c0.25-0.05,0.5,0.05,0.65-0.17c-0.17-0.88-1.34-0.36-2.02-0.28
		c-0.16,0.25-0.33,0.45-0.38,0.81C521.03,8.86,521.66,8.45,522.24,8.35L522.24,8.35z M509.07,20.18c0.17-0.2-0.08-0.63-0.36-0.45
		C508.69,19.88,508.77,20.24,509.07,20.18L509.07,20.18z M507.99,14.31c0.03-0.08-0.03-0.1-0.03-0.18c-0.13,0-0.25-0.02-0.23,0.13
		C507.78,14.38,507.94,14.38,507.99,14.31L507.99,14.31z M507.99,14.31"/>
	<path class="st0" d="M546.61,6.84c0.1,0.35-0.98,0.83-1.11,0.37C545.43,6.84,546.33,6.36,546.61,6.84L546.61,6.84z M546.61,6.84"/>
	<path class="st1" d="M545.35,98.17c-0.18,0-0.38,0-0.56,0C544.89,98.09,545.25,98.09,545.35,98.17L545.35,98.17z M545.35,98.17"/>
	<path class="st0" d="M543.63,3.96c0.05-0.05,0.18-0.05,0.23,0c-0.03,0.1-0.07,0.21-0.23,0.18C543.63,4.06,543.63,4.01,543.63,3.96
		L543.63,3.96z M543.63,3.96"/>
	<path class="st0" d="M540.23,10.39c0,0.23-0.76,0.61-0.86,0.18c0-0.08,0.03-0.23,0.15-0.33C539.75,10.11,540.23,10.19,540.23,10.39
		L540.23,10.39z M540.23,10.39"/>
	<path class="st0" d="M524.28,48.04c-0.03,0.08-0.05,0.1-0.08,0.18C523.81,48.19,524.16,47.63,524.28,48.04L524.28,48.04z
		 M524.28,48.04"/>
	<path class="st0" d="M508.72,19.73c0.28-0.18,0.53,0.25,0.36,0.45C508.77,20.24,508.69,19.88,508.72,19.73L508.72,19.73z
		 M508.72,19.73"/>
	<path class="st1" d="M507.96,14.13c0,0.08,0.05,0.1,0.05,0.18c-0.08,0.08-0.23,0.08-0.28-0.05
		C507.71,14.11,507.83,14.13,507.96,14.13L507.96,14.13z M507.96,14.13"/>
	<path class="st1" d="M506.8,16.53c-0.08,0.25-0.3,0.37-0.53,0.48c-0.08-0.05-0.13-0.13-0.17-0.2
		C506.1,16.43,506.62,16.15,506.8,16.53L506.8,16.53z M506.8,16.53"/>
</g>
</svg>
