<?xml version="1.0" encoding="utf-8"?>
<!-- Generator: Adobe Illustrator 27.1.1, SVG Export Plug-In . SVG Version: 6.00 Build 0)  -->
<svg version="1.1" id="Слой_1" xmlns="http://www.w3.org/2000/svg" xmlns:xlink="http://www.w3.org/1999/xlink" x="0px" y="0px"
	 viewBox="0 0 48.36 48.36" style="enable-background:new 0 0 48.36 48.36;" xml:space="preserve">
<style type="text/css">
	.st0{fill:#2A7E90;}
	.st1{fill:#FFFFFF;}
</style>
<path class="st0" d="M24.18,0C10.85,0,0,10.85,0,24.18s10.85,24.18,24.18,24.18s24.18-10.85,24.18-24.18S37.51,0,24.18,0z
	 M42.8,13.17c-2.61,0.48-5.22,0.85-7.83,1.13C34,9.74,32.37,5.95,30.31,3.43C35.6,4.99,40.04,8.52,42.8,13.17z M33.43,24.18
	c0,2.43-0.17,4.72-0.47,6.82c-5.82-0.46-11.68-0.46-17.54,0c-0.3-2.1-0.47-4.39-0.47-6.82c0-2.55,0.19-4.94,0.52-7.13
	c2.88,0.24,5.76,0.36,8.64,0.36c2.94,0,5.87-0.13,8.81-0.37C33.24,19.23,33.43,21.62,33.43,24.18z M24.18,2.54
	c3.23,0,6.63,4.56,8.26,11.99c-5.5,0.45-11.02,0.45-16.52,0.01C17.55,7.11,20.95,2.54,24.18,2.54z M18.05,3.43
	c-2.06,2.53-3.69,6.32-4.66,10.89c-2.62-0.27-5.24-0.65-7.85-1.12C8.3,8.54,12.75,5,18.05,3.43z M2.54,24.18
	c0-3.07,0.64-5.98,1.8-8.63c2.86,0.54,5.73,0.96,8.6,1.26c-0.35,2.31-0.54,4.78-0.54,7.36c0,2.46,0.17,4.82,0.49,7.04
	c-2.9,0.29-5.81,0.7-8.71,1.22C3.12,29.9,2.54,27.11,2.54,24.18z M5.34,34.82c2.66-0.46,5.32-0.82,7.98-1.09
	c0.96,4.71,2.62,8.61,4.73,11.2C12.62,43.33,8.08,39.65,5.34,34.82z M24.18,45.82c-3.28,0-6.73-4.69-8.33-12.32
	c5.57-0.42,11.12-0.42,16.65,0C30.91,41.13,27.46,45.82,24.18,45.82z M30.31,44.93c2.11-2.59,3.76-6.49,4.73-11.2
	c2.66,0.27,5.32,0.64,7.97,1.1C40.26,39.66,35.73,43.33,30.31,44.93z M35.47,31.23c0.32-2.22,0.49-4.59,0.49-7.05
	c0-2.59-0.19-5.06-0.54-7.38c2.87-0.31,5.73-0.73,8.59-1.28c1.16,2.65,1.81,5.58,1.81,8.66c0,2.94-0.59,5.73-1.65,8.29
	C41.28,31.94,38.38,31.53,35.47,31.23z"/>
</svg>
