<?xml version="1.0" encoding="utf-8"?>
<!-- Generator: Adobe Illustrator 26.5.0, SVG Export Plug-In . SVG Version: 6.00 Build 0)  -->
<svg version="1.1" id="Слой_1" xmlns="http://www.w3.org/2000/svg" xmlns:xlink="http://www.w3.org/1999/xlink" x="0px" y="0px"
	 viewBox="0 0 46.4 47.2" style="enable-background:new 0 0 46.4 47.2;" xml:space="preserve">
<style type="text/css">
	.st0{fill:#FFFFFF;}
</style>
<g>
	<path class="st0" d="M43.3,33c-0.9-0.6-1.8-1.3-2.7-2c-3.6-2.7-7.6-5.7-10.9-2.4c-2,2-3.6,1.5-4.1,1.3c-0.6-0.5-3-2.5-5.5-5
		c-3.2-3.1-3.5-4.5-1.7-7.5c2.9-4.8,1.7-6.6-2.4-12.4l-0.2-0.3C13.7,1.7,11.9,0.3,10,0C7.7-0.2,5.7,1.3,4,2.8
		c-4.2,3.7-5.2,9.7-2.4,15.7c1.9,4.2,7.6,14.9,18.9,22.5c5.7,3.8,10.4,6.2,14.7,6.2c2.9,0,5.5-1.1,8.2-3.5c2.1-1.9,3.1-3.9,2.9-5.9
		C46.1,34.9,43.5,33.1,43.3,33z M41.7,41.8c-4.9,4.4-9.9,3.7-19.8-3c-10.8-7.2-16.2-17.4-18-21.4c-2.3-5-1.6-9.8,1.8-12.8
		c1.7-1.5,2.9-2.1,3.8-2.1c0.1,0,0.2,0,0.2,0c1.1,0.1,2.4,1.3,4,3.6l0.2,0.3c4.1,5.8,4.4,6.3,2.3,9.7c-2.8,4.5-1.4,7.2,2,10.6
		c2.9,2.9,5.7,5.2,5.8,5.3c0.1,0.1,0.1,0.1,0.2,0.2c0.1,0.1,3.6,1.8,7.1-1.8C33,28.8,35,30.1,39,33c0.9,0.7,1.9,1.4,2.8,2
		c0,0,0,0,0,0c0,0,1.8,1.2,1.9,2.9C43.9,39.2,43.2,40.5,41.7,41.8z"/>
	<path class="st0" d="M36.8,22.6h2.5c0-8.3-6.7-15-15-15v2.5C31.2,10.2,36.8,15.8,36.8,22.6z"/>
	<path class="st0" d="M43.8,22.6h2.5c0-12.1-9.9-22-22-22v2.5C35.1,3.2,43.8,11.9,43.8,22.6z"/>
</g>
</svg>
