<?xml version="1.0" encoding="utf-8"?>
<!-- Generator: Adobe Illustrator 26.3.1, SVG Export Plug-In . SVG Version: 6.00 Build 0)  -->
<svg version="1.1" id="Слой_1" xmlns="http://www.w3.org/2000/svg" xmlns:xlink="http://www.w3.org/1999/xlink" x="0px" y="0px"
	 viewBox="0 0 47.1 47.1" style="enable-background:new 0 0 47.1 47.1;" xml:space="preserve">
<style type="text/css">
	.st0{fill:#182441;stroke:#182441;stroke-linejoin:round;stroke-miterlimit:10;}
</style>
<g>
	<path class="st0" d="M42.8,39.7l-5.4-23.2c10.9-10.5,9.2-15,9-15.5c-0.1-0.1-0.2-0.3-0.3-0.3c-0.5-0.2-4.9-1.9-15.5,9L7.4,4.3
		c-0.2-0.1-0.5,0-0.7,0.2L3.4,7.8C3.2,8,3.1,8.2,3.2,8.4c0,0.2,0.2,0.4,0.4,0.5l17.9,9.8l-7.2,8.5L4.1,25.8c-0.2,0-0.5,0-0.6,0.2
		l-2.8,3c-0.2,0.2-0.2,0.4-0.2,0.6c0,0.2,0.2,0.4,0.4,0.5l10.7,5.3l5.3,10.7c0,0.1,0.1,0.1,0.1,0.2c0.1,0.1,0.2,0.2,0.4,0.2
		c0.2,0,0.4,0,0.6-0.2l3-2.8c0.2-0.2,0.3-0.4,0.2-0.6l-1.5-10.1l8.5-7.2l9.8,17.9c0.1,0.2,0.3,0.3,0.5,0.4c0.2,0,0.4,0,0.6-0.2
		l3.4-3.4C42.8,40.2,42.8,39.9,42.8,39.7z M38.9,42l-9.8-17.8c-0.1-0.2-0.3-0.3-0.5-0.4c-0.2,0-0.4,0-0.6,0.2l-9.5,8.1
		c-0.2,0.2-0.3,0.4-0.2,0.6l1.5,10.1l-2,1.9l-5-10.1c-0.1-0.1-0.2-0.3-0.3-0.3l-10.1-5l1.9-2l10.1,1.5c0.2,0,0.5-0.1,0.6-0.2L23,19
		c0.1-0.2,0.2-0.4,0.2-0.6c0-0.2-0.2-0.4-0.4-0.5L5,8.2l2.4-2.4l23.2,5.4c0.2,0.1,0.5,0,0.7-0.2C39.8,2.1,44,1.8,45.1,2
		c0.1,1.1-0.2,5.3-9,13.8c-0.2,0.2-0.3,0.4-0.2,0.7l5.4,23.2L38.9,42z"/>
</g>
</svg>
