<?xml version="1.0" encoding="utf-8"?>
<!-- Generator: Adobe Illustrator 26.3.1, SVG Export Plug-In . SVG Version: 6.00 Build 0)  -->
<svg version="1.1" id="Слой_1" xmlns="http://www.w3.org/2000/svg" xmlns:xlink="http://www.w3.org/1999/xlink" x="0px" y="0px"
	 viewBox="0 0 40 54" style="enable-background:new 0 0 40 54;" xml:space="preserve">
<style type="text/css">
	.st0{fill:#F58320;}
</style>
<path class="st0" d="M35.1,33.1C38.1,29.6,40,25,40,20C40,9,31,0,20,0C9,0,0,9,0,20c0,5,1.9,9.6,4.9,13.1l8.9,13
	c-0.4,0.6-0.6,1.3-0.5,2.1l0.4,3C14,52.8,15.4,54,17,54h6c1.6,0,3-1.2,3.3-2.8l0.4-3c0.1-0.8-0.1-1.5-0.5-2.1L35.1,33.1z M24,45h-8
	c-0.2,0-0.3,0-0.4,0l-5.2-7.5c2.9,1.6,6.1,2.5,9.6,2.5c3.5,0,6.8-0.9,9.6-2.5L24.4,45C24.3,45,24.2,45,24,45z M21,37.9V2.1
	c4.4,1,8,8.8,8,17.9S25.4,36.8,21,37.9z M19,2.1v35.8c-4.4-1-8-8.8-8-17.9S14.6,3.2,19,2.1z M38,20c0,3.3-0.9,6.5-2.5,9.2
	c-0.1,0.1-0.2,0.2-0.3,0.3l-1.7,2.4c-2,2.3-4.7,4.1-7.7,5.2C29,33.5,31,27.3,31,20S29,6.5,25.8,3C32.9,5.4,38,12.1,38,20z M14.2,3
	C11,6.5,9,12.7,9,20s2,13.5,5.2,17c-3-1-5.6-2.8-7.7-5.2l-1.7-2.4c-0.1-0.1-0.2-0.2-0.3-0.3C2.9,26.5,2,23.3,2,20
	C2,12.1,7.1,5.4,14.2,3z M24.3,50.9C24.2,51.5,23.6,52,23,52h-6c-0.6,0-1.2-0.5-1.3-1.1l-0.4-3c0-0.2,0-0.4,0.2-0.6
	c0.1-0.2,0.3-0.2,0.6-0.2h8c0.2,0,0.4,0.1,0.6,0.2c0.1,0.2,0.2,0.4,0.2,0.6L24.3,50.9z"/>
</svg>
