<?xml version="1.0" encoding="utf-8"?>
<!-- Generator: Adobe Illustrator 26.3.1, SVG Export Plug-In . SVG Version: 6.00 Build 0)  -->
<svg version="1.1" id="Слой_1" xmlns="http://www.w3.org/2000/svg" xmlns:xlink="http://www.w3.org/1999/xlink" x="0px" y="0px"
	 viewBox="0 0 54 53" style="enable-background:new 0 0 54 53;" xml:space="preserve">
<style type="text/css">
	.st0{fill:#F58320;}
</style>
<g>
	<path class="st0" d="M53,32H1c-0.6,0-1,0.4-1,1s0.4,1,1,1h52c0.6,0,1-0.4,1-1S53.6,32,53,32z"/>
	<path class="st0" d="M4,31h46c0,0,0,0,0,0c0.6,0,1-0.4,1-1c0-0.1,0-0.1,0-0.2c-0.1-12-9.1-22-20.7-23.6C30.7,5.6,31,4.8,31,4
		c0-2.2-1.8-4-4-4c-2.2,0-4,1.8-4,4c0,0.8,0.3,1.6,0.7,2.2C12,7.9,3,17.9,3,30C3,30.6,3.4,31,4,31z M25,4c0-1.1,0.9-2,2-2
		c1.1,0,2,0.9,2,2s-0.9,2-2,2C25.9,6,25,5.1,25,4z M27,8c11.8,0,21.5,9.3,22,21H5C5.5,17.3,15.2,8,27,8z"/>
	<path class="st0" d="M19.9,12.4c-5.6,2.2-9.8,7-11.3,12.9c-0.1,0.5,0.2,1.1,0.7,1.2c0.1,0,0.2,0,0.3,0c0.4,0,0.9-0.3,1-0.7
		c1.3-5.2,5.1-9.5,10.1-11.5c0.5-0.2,0.8-0.8,0.6-1.3C21,12.4,20.5,12.2,19.9,12.4z"/>
	<path class="st0" d="M48.3,36.4c-0.8-0.2-1.6-0.3-2.3-0.3c-3.6,0-5.4,2.6-5.8,3.3c-0.6,0.5-4,3.6-9,3.6H31c-2.9,0-4.8-0.5-6.1-1
		h7.3c1.6,0,2.8-0.5,3.6-1.4c1.4-1.5,1.2-3.6,1.1-3.7c-0.1-0.5-0.5-0.9-1-0.9H17C8.8,36,0.5,50.9,0.1,51.5c-0.2,0.3-0.2,0.7,0,1
		C0.3,52.8,0.6,53,1,53h13.9c0.5,0,0.9-0.3,1-0.8c0.3-1.3,1.1-2,1.4-2.2H30c11.4,0,17.8-9.6,18.9-12.2c0.1-0.3,0.1-0.6,0-0.8
		C48.8,36.7,48.5,36.5,48.3,36.4z M30,48H17c-0.1,0-0.3,0-0.4,0.1c-0.1,0-1.7,0.8-2.4,2.9H2.7c2.9-4.7,9.1-13,14.3-13h17.9
		c-0.1,0.4-0.2,0.9-0.6,1.2c-0.5,0.5-1.2,0.8-2.2,0.8H22c-0.3,0-0.7,0.2-0.8,0.5c-0.2,0.3-0.2,0.6-0.1,1c0.2,0.4,1.8,3.5,9.9,3.6
		l0.2,0c6.3,0,10.4-4.1,10.6-4.3c0.1-0.1,0.1-0.2,0.2-0.2c0,0,1.2-2.3,4.1-2.3c0.2,0,0.3,0,0.5,0C44.7,40.9,39.5,48,30,48z"/>
</g>
</svg>
