<?xml version="1.0" encoding="utf-8"?>
<!-- Generator: Adobe Illustrator 26.3.1, SVG Export Plug-In . SVG Version: 6.00 Build 0)  -->
<svg version="1.1" id="Слой_1" xmlns="http://www.w3.org/2000/svg" xmlns:xlink="http://www.w3.org/1999/xlink" x="0px" y="0px"
	 viewBox="0 0 54 36.6" style="enable-background:new 0 0 54 36.6;" xml:space="preserve">
<style type="text/css">
	.st0{fill:#F58320;}
</style>
<g>
	<g>
		<path class="st0" d="M48.7,36.6H5.3c-2.9,0-5.3-2.4-5.3-5.3v-26C0,2.4,2.4,0,5.3,0h43.4C51.6,0,54,2.4,54,5.3v26
			C54,34.2,51.6,36.6,48.7,36.6z M5.3,1.8c-1.9,0-3.5,1.6-3.5,3.5v26c0,1.9,1.6,3.5,3.5,3.5h43.4c1.9,0,3.5-1.6,3.5-3.5v-26
			c0-1.9-1.6-3.5-3.5-3.5H5.3z"/>
	</g>
	<g>
		<path class="st0" d="M53.1,14.1H0.9c-0.5,0-0.9-0.4-0.9-0.9V6.3c0-0.5,0.4-0.9,0.9-0.9h52.2c0.5,0,0.9,0.4,0.9,0.9v6.9
			C54,13.7,53.6,14.1,53.1,14.1z M1.8,12.3h50.5V7.2H1.8V12.3z"/>
	</g>
	<g>
		<g>
			<path class="st0" d="M10.4,31.2c-2.1,0-3.8-1.7-3.8-3.8c0-2.1,1.7-3.8,3.8-3.8c2.1,0,3.8,1.7,3.8,3.8
				C14.2,29.5,12.5,31.2,10.4,31.2z M10.4,25.4c-1.1,0-2,0.9-2,2c0,1.1,0.9,2,2,2s2-0.9,2-2C12.4,26.3,11.5,25.4,10.4,25.4z"/>
		</g>
		<g>
			<path class="st0" d="M16.2,31.2c-2.1,0-3.8-1.7-3.8-3.8c0-2.1,1.7-3.8,3.8-3.8c2.1,0,3.8,1.7,3.8,3.8
				C19.9,29.5,18.2,31.2,16.2,31.2z M16.2,25.4c-1.1,0-2,0.9-2,2c0,1.1,0.9,2,2,2c1.1,0,2-0.9,2-2C18.2,26.3,17.3,25.4,16.2,25.4z"
				/>
		</g>
	</g>
</g>
</svg>
