<?xml version="1.0" encoding="utf-8"?>
<!-- Generator: Adobe Illustrator 26.3.1, SVG Export Plug-In . SVG Version: 6.00 Build 0)  -->
<svg version="1.1" id="Livello_1" xmlns="http://www.w3.org/2000/svg" xmlns:xlink="http://www.w3.org/1999/xlink" x="0px" y="0px"
	 viewBox="0 0 185.3 144.6" style="enable-background:new 0 0 185.3 144.6;" xml:space="preserve">
<style type="text/css">
	.st0{fill:#FFFFFF;}
	.st1{fill:url(#SVGID_1_);}
	.st2{fill-rule:evenodd;clip-rule:evenodd;fill:url(#SVGID_00000098195307452702753100000014895819210985398440_);}
	.st3{fill-rule:evenodd;clip-rule:evenodd;fill:url(#SVGID_00000019672116120271183400000001474583654532291456_);}
	.st4{fill:url(#SVGID_00000073708123838155555210000011022100746131057086_);}
	.st5{fill:url(#SVGID_00000075855996168395305280000011831621990610465982_);}
</style>
<g>
	<path class="st0" d="M92.9,89.3l-0.3-0.2C92.5,89,83,82.3,76.2,74.5c-4.3-4.7-3.7-8.9-2.9-10.9c1.1-3,3.7-5.4,6.5-5.8l0.2,0
		l0.1,0.1c4.9,2.2,10.1,3.2,12.8,3.2c2.5,0,7.6-1,12.8-3.1l0.1-0.1l0.1,0c2.7,0.3,5.4,2.6,6.6,5.7c0.8,2.1,1.5,6.2-2.7,10.9
		c-7,7.8-16.5,14.5-16.6,14.5L92.9,89.3z"/>
	<linearGradient id="SVGID_1_" gradientUnits="userSpaceOnUse" x1="58.0824" y1="76.8046" x2="127.1774" y2="7.7096">
		<stop  offset="0.18" style="stop-color:#C4A23A"/>
		<stop  offset="0.2207" style="stop-color:#C8A948"/>
		<stop  offset="0.2974" style="stop-color:#D3BA6D"/>
		<stop  offset="0.4021" style="stop-color:#E5D6A8"/>
		<stop  offset="0.5092" style="stop-color:#F9F6EB"/>
		<stop  offset="0.586" style="stop-color:#E9DCB6"/>
		<stop  offset="0.6708" style="stop-color:#D9C381"/>
		<stop  offset="0.7445" style="stop-color:#CEB15B"/>
		<stop  offset="0.8033" style="stop-color:#C7A643"/>
		<stop  offset="0.84" style="stop-color:#C4A23A"/>
	</linearGradient>
	<path class="st1" d="M124.6,56.9c-5.7,0.8-10.5,1.6-10.5,1.6c0.8,1.1,2.4,8,1.9,9.9c8.6,2.4,13.5,1.9,14.6,5.1
		C132.9,68.4,130.5,60.1,124.6,56.9z M133.8,35c-0.8-2.9-2.4-9.1-1.4-15c0,0-9.4,3.2-15.1,9.1c2.7,6.9,1.1,16.8-3.2,22.2
		c0,0,8.6-7.5,9.2-9.1c0.5-1.6,2.4-1.6,3-0.5c0.5,1.1,1.9,4.3-7.8,12.6C140,48.9,134.6,37.9,133.8,35z M115.9,25.7
		c4.3-4,6.2-4.5,6.2-4.5l-0.3-18.7l-15.7,9.4C107.3,12,115.9,23.5,115.9,25.7z M60.7,56.9c-5.9,3.2-8.4,11.5-5.9,16.6
		c1.1-3.2,5.9-2.7,14.6-5.1c-0.5-1.9,1.1-8.8,1.9-9.9C71.2,58.5,66.4,57.7,60.7,56.9z M68,29.1C62.3,23.2,52.9,20,52.9,20
		c1.1,5.9-0.5,12-1.4,15c-0.8,2.9-6.2,13.9,15.4,19.2c-9.7-8.3-8.4-11.5-7.8-12.6c0.5-1.1,2.4-1.1,3,0.5c0.5,1.6,9.2,9.1,9.2,9.1
		C66.9,46,65.3,36.1,68,29.1z M79,11.8L63.4,2.4l-0.3,18.7c0,0,1.9,0.5,6.2,4.5C69.3,23.5,78,12,79,11.8z M92.7,0L92.7,0
		c-2.6,4.2-22,23.3-22,37.8c0,11.1,6.9,19.6,22,19.6c15.1,0,22-8.5,22-19.6C114.7,23.2,95.3,4.2,92.7,0z"/>
	<g>
		
			<linearGradient id="SVGID_00000127041392413498636730000002343009992156495546_" gradientUnits="userSpaceOnUse" x1="76.2347" y1="156.5907" x2="109.0206" y2="123.8048">
			<stop  offset="3.067480e-02" style="stop-color:#C4A23A"/>
			<stop  offset="6.176111e-02" style="stop-color:#C8A948"/>
			<stop  offset="0.1204" style="stop-color:#D3BA6D"/>
			<stop  offset="0.2004" style="stop-color:#E5D6A8"/>
			<stop  offset="0.2822" style="stop-color:#F9F6EB"/>
			<stop  offset="0.3406" style="stop-color:#E9DCB6"/>
			<stop  offset="0.4051" style="stop-color:#D9C381"/>
			<stop  offset="0.4611" style="stop-color:#CEB15B"/>
			<stop  offset="0.5059" style="stop-color:#C7A643"/>
			<stop  offset="0.5337" style="stop-color:#C4A23A"/>
			<stop  offset="0.773" style="stop-color:#F9F6EB"/>
			<stop  offset="0.9939" style="stop-color:#C4A23A"/>
		</linearGradient>
		<path style="fill-rule:evenodd;clip-rule:evenodd;fill:url(#SVGID_00000127041392413498636730000002343009992156495546_);" d="
			M121.1,142.4l-0.6,2.2l-0.6-2.2l-1.2,0.9l0.2-1.5l-1.5,0.2l0.9-1.2l-2.2-0.6l2.2-0.6l-0.9-1.2l1.5,0.2l-0.2-1.5l1.2,0.9l0.6-2.2
			l0.6,2.2l1.2-0.9l-0.2,1.5l1.5-0.2l-0.9,1.2l2.2,0.6l-2.2,0.6l0.9,1.2l-1.5-0.2l0.2,1.5L121.1,142.4z M110.3,142.4l-0.6,2.2
			l-0.6-2.2l-1.2,0.9l0.2-1.5l-1.5,0.2l0.9-1.2l-2.2-0.6l2.2-0.6l-0.9-1.2l1.5,0.2l-0.2-1.5l1.2,0.9l0.6-2.2l0.6,2.2l1.2-0.9
			l-0.2,1.5l1.5-0.2l-0.9,1.2l2.2,0.6l-2.2,0.6l0.9,1.2l-1.5-0.2l0.2,1.5L110.3,142.4z M99,142.4l-0.6,2.2l-0.6-2.2l-1.2,0.9
			l0.2-1.5l-1.5,0.2l0.9-1.2l-2.2-0.6l2.2-0.6l-0.9-1.2l1.5,0.2l-0.2-1.5l1.2,0.9l0.6-2.2L99,138l1.2-0.9l-0.2,1.5l1.5-0.2l-0.9,1.2
			l2.2,0.6l-2.2,0.6l0.9,1.2l-1.5-0.2l0.2,1.5L99,142.4z M87.8,142.4l-0.6,2.2l-0.6-2.2l-1.2,0.9l0.2-1.5l-1.5,0.2l0.9-1.2l-2.2-0.6
			l2.2-0.6l-0.9-1.2l1.5,0.2l-0.2-1.5l1.2,0.9l0.6-2.2l0.6,2.2l1.2-0.9l-0.2,1.5l1.5-0.2l-0.9,1.2l2.2,0.6l-2.2,0.6l0.9,1.2
			l-1.5-0.2l0.2,1.5L87.8,142.4z M76.6,142.4l-0.6,2.2l-0.6-2.2l-1.2,0.9l0.2-1.5l-1.5,0.2l0.9-1.2l-2.2-0.6l2.2-0.6l-0.9-1.2
			l1.5,0.2l-0.2-1.5l1.2,0.9l0.6-2.2l0.6,2.2l1.2-0.9l-0.2,1.5l1.5-0.2l-0.9,1.2l2.2,0.6l-2.2,0.6l0.9,1.2l-1.5-0.2l0.2,1.5
			L76.6,142.4z M65.3,142.4l-0.6,2.2l-0.6-2.2l-1.2,0.9l0.2-1.5l-1.5,0.2l0.9-1.2l-2.2-0.6l2.2-0.6l-0.9-1.2l1.5,0.2l-0.2-1.5
			l1.2,0.9l0.6-2.2l0.6,2.2l1.2-0.9l-0.2,1.5l1.5-0.2l-0.9,1.2l2.2,0.6l-2.2,0.6l0.9,1.2l-1.5-0.2l0.2,1.5L65.3,142.4z"/>
		
			<linearGradient id="SVGID_00000081650247915593631730000012166069099784201349_" gradientUnits="userSpaceOnUse" x1="71.1905" y1="143.8721" x2="114.0674" y2="100.9951">
			<stop  offset="3.067480e-02" style="stop-color:#C4A23A"/>
			<stop  offset="6.176111e-02" style="stop-color:#C8A948"/>
			<stop  offset="0.1204" style="stop-color:#D3BA6D"/>
			<stop  offset="0.2004" style="stop-color:#E5D6A8"/>
			<stop  offset="0.2822" style="stop-color:#F9F6EB"/>
			<stop  offset="0.3406" style="stop-color:#E9DCB6"/>
			<stop  offset="0.4051" style="stop-color:#D9C381"/>
			<stop  offset="0.4611" style="stop-color:#CEB15B"/>
			<stop  offset="0.5059" style="stop-color:#C7A643"/>
			<stop  offset="0.5337" style="stop-color:#C4A23A"/>
			<stop  offset="0.773" style="stop-color:#F9F6EB"/>
			<stop  offset="0.9939" style="stop-color:#C4A23A"/>
		</linearGradient>
		<path style="fill-rule:evenodd;clip-rule:evenodd;fill:url(#SVGID_00000081650247915593631730000012166069099784201349_);" d="
			M91.9,129.3c-0.4-0.2-9.1-5.2-42.2-6.8c0,0,28.6,0.3,40.6,4c18.7-3.8,45.1-4,45.1-4C102.2,125.1,92.3,129.1,91.9,129.3L91.9,129.3
			C91.9,129.3,91.9,129.3,91.9,129.3C91.9,129.3,91.9,129.3,91.9,129.3L91.9,129.3z"/>
	</g>
	
		<linearGradient id="SVGID_00000096739262835132581950000006553296287433239210_" gradientUnits="userSpaceOnUse" x1="42.49" y1="154.5798" x2="140.999" y2="56.0708">
		<stop  offset="3.067480e-02" style="stop-color:#C4A23A"/>
		<stop  offset="6.176111e-02" style="stop-color:#C8A948"/>
		<stop  offset="0.1204" style="stop-color:#D3BA6D"/>
		<stop  offset="0.2004" style="stop-color:#E5D6A8"/>
		<stop  offset="0.2822" style="stop-color:#F9F6EB"/>
		<stop  offset="0.3406" style="stop-color:#E9DCB6"/>
		<stop  offset="0.4051" style="stop-color:#D9C381"/>
		<stop  offset="0.4611" style="stop-color:#CEB15B"/>
		<stop  offset="0.5059" style="stop-color:#C7A643"/>
		<stop  offset="0.5337" style="stop-color:#C4A23A"/>
		<stop  offset="0.773" style="stop-color:#F9F6EB"/>
		<stop  offset="0.9939" style="stop-color:#C4A23A"/>
	</linearGradient>
	<path style="fill:url(#SVGID_00000096739262835132581950000006553296287433239210_);" d="M19.5,114.7h-2.3V98.4l-5.6,16.4H9.6
		L4.1,98.4L4,114.7H2.6v-14.7c0-1-0.2-1.7-0.6-2c-0.2-0.2-0.9-0.4-2.1-0.7v-0.4h5.8l5.2,15.2l5.3-15.2h3.2V114.7z M32.3,109.9
		c0,1.7-0.7,3-2,3.9c-1.1,0.8-2.6,1.1-4.4,1.1c-1.3,0-2.7-0.2-4.2-0.5v-1.8c1.6,0.8,3.2,1.2,4.6,1.2c2.5,0,3.7-1.1,3.7-3.4
		c0-1.2-0.7-2.3-2.2-3.2c-1.4-0.8-2.7-1.5-4.1-2.3c-1.5-1-2.2-2.3-2.2-3.9c0-1.5,0.6-2.7,1.8-3.5c1-0.7,2.3-1,4-1
		c1.3,0,2.6,0.1,3.9,0.4v1.9c-1.6-0.7-3-1.1-4.4-1.1c-0.9,0-1.6,0.2-2.2,0.7c-0.7,0.5-1,1.1-1,2c0,1.1,0.8,2.1,2.3,3
		c1.4,0.8,2.8,1.6,4.2,2.3C31.5,106.9,32.3,108.3,32.3,109.9 M45.8,114.3c-1.5,0.5-3.1,0.7-5,0.7c-2.5,0-4.5-1-5.9-3.1
		c-1.2-1.8-1.8-4-1.8-6.6c0-5.7,2.3-8.6,7-8.6c1.4,0,2.7,0.3,3.6,0.9c1.2,0.7,1.8,1.7,2,3h-2.6c-0.3-1.8-1.3-2.7-3.2-2.7
		c-1.6,0-2.7,0.8-3.5,2.3c-0.5,1.2-0.8,2.6-0.8,4.4c0,6.2,2.2,9.3,6.5,9.3c1,0,2.2-0.2,3.5-0.7V114.3z M67.2,96.9l-5.8,9.4v8.3H59
		v-8.3l-3.7-6.3c-0.6-1-1-1.6-1.2-1.8c-0.5-0.5-1.1-0.8-2-0.8v-0.4H56l4.6,7.7l4.8-7.7H67.2z M79.9,114.7h-2.6l-2.2-5.9h-6.7
		l-2.1,5.9h-1.7l3.2-8.2c1.8-4.5,2.6-7.2,2.6-7.9c0-0.4-0.3-0.7-0.8-0.9c-0.2-0.1-0.6-0.2-1.2-0.4v-0.4h4.5L79.9,114.7z M74.8,107.8
		l-3-8.1l-3,8.1H74.8z M92.1,114.3c-1.5,0.5-3.1,0.7-5,0.7c-2.5,0-4.5-1-5.9-3.1c-1.2-1.8-1.8-4-1.8-6.6c0-5.7,2.3-8.6,7-8.6
		c1.4,0,2.7,0.3,3.6,0.9c1.2,0.7,1.8,1.7,2,3h-2.6c-0.3-1.8-1.3-2.7-3.2-2.7c-1.6,0-2.7,0.8-3.5,2.3c-0.5,1.2-0.8,2.6-0.8,4.4
		c0,6.2,2.2,9.3,6.5,9.3c1,0,2.2-0.2,3.5-0.7V114.3z M107.9,114.7h-2.3V106h-7.7v8.7h-2.3V100c0-0.8-0.3-1.4-0.8-1.6
		c-0.2-0.1-0.8-0.2-1.9-0.3v-0.5l4.9-0.6v8.1h7.7v-8.1h2.3V114.7z M123.2,100.6h-0.8c-0.1-1-0.3-1.7-0.5-2c-0.3-0.4-0.9-0.6-1.9-0.6
		h-2.4v16.7h-2.3V98h-2.4c-0.9,0-1.6,0.2-1.9,0.6c-0.2,0.3-0.4,1-0.5,2h-0.8l0.1-3.6h13.3L123.2,100.6z M142.7,114.3
		c-1.5,0.5-3.1,0.7-5,0.7c-2.5,0-4.5-1-5.9-3.1c-1.2-1.8-1.8-4-1.8-6.6c0-5.7,2.3-8.6,7-8.6c1.4,0,2.7,0.3,3.6,0.9
		c1.2,0.7,1.8,1.7,2,3h-2.6c-0.3-1.8-1.3-2.7-3.2-2.7c-1.6,0-2.7,0.8-3.5,2.3c-0.5,1.2-0.8,2.6-0.8,4.4c0,6.2,2.2,9.3,6.5,9.3
		c1,0,2.2-0.2,3.5-0.7V114.3z M156.3,110.8l-0.1,3.9h-9.8V100c0-0.8-0.2-1.4-0.7-1.6c-0.2-0.1-0.8-0.2-1.9-0.3v-0.5l4.9-0.6v14.4
		c0,1.1,0.1,1.8,0.3,2c0.2,0.2,0.8,0.3,1.9,0.3h2.4c0.9,0,1.5-0.3,1.8-0.8c0.2-0.3,0.3-1,0.4-2H156.3z M170.1,108.2
		c0,2.4-0.4,4.1-1.1,5.1c-0.8,1.2-2.5,1.8-4.9,1.8c-2.4,0-4.1-0.6-5-1.7c-0.8-1-1.1-2.7-1.1-5.1V100c0-0.8-0.3-1.4-0.8-1.6
		c-0.2-0.1-0.8-0.2-1.9-0.3v-0.5l4.9-0.6v11.3c0,1.7,0.2,3,0.6,3.9c0.6,1.2,1.7,1.9,3.2,1.9c1.8,0,3-0.5,3.6-1.5
		c0.5-0.8,0.7-2.1,0.7-4V96.9h1.6V108.2z M185.3,109.9c0,3.2-2.2,4.8-6.7,4.8h-4.9V100c0-1-0.2-1.6-0.6-1.9c-0.2-0.2-0.9-0.4-2-0.6
		v-0.4h7.4c4,0,5.9,1.4,5.9,4.3c0,1-0.3,1.9-0.8,2.6c-0.6,0.7-1.3,1.2-2.3,1.4C183.9,105.8,185.3,107.3,185.3,109.9 M181.8,101.4
		c0-2.3-1.3-3.4-3.9-3.4c-0.9,0-1.4,0.1-1.6,0.3c-0.2,0.2-0.3,0.7-0.3,1.6v4.9h1.3C180.3,104.8,181.8,103.7,181.8,101.4
		 M182.7,109.9c0-1.6-0.6-2.7-1.7-3.3c-0.8-0.5-2.1-0.8-3.8-0.8h-1.3v5.7c0,1,0.1,1.6,0.3,1.9c0.2,0.2,0.8,0.3,1.9,0.3
		C181.2,113.7,182.7,112.5,182.7,109.9"/>
</g>
</svg>
