<?xml version="1.0" encoding="utf-8"?>
<!-- Generator: Adobe Illustrator 27.1.1, SVG Export Plug-In . SVG Version: 6.00 Build 0)  -->
<svg version="1.1" id="Слой_1" xmlns="http://www.w3.org/2000/svg" xmlns:xlink="http://www.w3.org/1999/xlink" x="0px" y="0px"
	 viewBox="0 0 50.24 35.53" style="enable-background:new 0 0 50.24 35.53;" xml:space="preserve">
<style type="text/css">
	.st0{fill:#2A7E90;}
	.st1{fill:#FFFFFF;}
</style>
<path class="st0" d="M46.96,0H3.28C1.47,0,0,1.47,0,3.28v28.97c0,1.81,1.47,3.28,3.28,3.28h43.68c1.81,0,3.28-1.47,3.28-3.28V3.28
	C50.24,1.47,48.77,0,46.96,0z M45.8,2.54L27,21.17c-1.03,1.02-2.72,1.02-3.75,0L4.44,2.54H45.8z M2.54,30.93V4.22l12.75,12.63
	L2.54,30.93z M4.1,32.99l12.99-14.35l4.37,4.33c1.01,1,2.34,1.5,3.66,1.5c1.33,0,2.65-0.5,3.66-1.5l4.28-4.24l13.06,14.26H4.1z
	 M47.7,30.96L34.87,16.94L47.7,4.22V30.96z"/>
</svg>
