<?xml version="1.0" encoding="utf-8"?>
<!-- Generator: Adobe Illustrator 26.3.1, SVG Export Plug-In . SVG Version: 6.00 Build 0)  -->
<svg version="1.1" id="Режим_изоляции"
	 xmlns="http://www.w3.org/2000/svg" xmlns:xlink="http://www.w3.org/1999/xlink" x="0px" y="0px" viewBox="0 0 1148.7 101.4"
	 style="enable-background:new 0 0 1148.7 101.4;" xml:space="preserve">
<style type="text/css">
	.st0{fill:#091F40;}
	.st1{fill:#FFFFFF;}
	.st2{fill:#29ABE2;}
</style>
<g>
	<path class="st0" d="M957.3,101.4c-53.2,0-81-19.6-105.5-36.9c-23.3-16.5-43.5-30.7-86-30.7c-42.5,0-62.7,14.2-86,30.7
		c-24.5,17.3-52.2,36.9-105.5,36.9c-53.2,0-81-19.6-105.5-36.9c-23.3-16.5-43.5-30.7-86-30.7s-62.7,14.2-86,30.7
		c-24.5,17.3-52.2,36.9-105.5,36.9c-53.2,0-81-19.6-105.5-36.9C62.6,48,42.5,33.8,0,33.8V0c53.2,0,81,19.6,105.5,36.9
		c23.3,16.5,43.5,30.7,86,30.7c42.5,0,62.7-14.2,86-30.7C301.9,19.6,329.7,0,382.9,0c53.2,0,81,19.6,105.5,36.9
		c23.3,16.5,43.5,30.7,86,30.7c42.5,0,62.7-14.2,86-30.7C684.8,19.6,712.6,0,765.8,0c53.2,0,81,19.6,105.5,36.9
		c23.3,16.5,43.5,30.7,86,30.7s62.7-14.2,86-30.7C1067.8,19.6,1095.5,0,1148.7,0v33.8c-42.5,0-62.7,14.2-86,30.7
		C1038.3,81.8,1010.5,101.4,957.3,101.4z"/>
</g>
</svg>
